<?xml version="1.0" standalone="no"?>
<!DOCTYPE svg PUBLIC "-//W3C//DTD SVG 1.1//EN" "http://www.w3.org/Graphics/SVG/1.1/DTD/svg11.dtd" >
<svg xmlns="http://www.w3.org/2000/svg" xmlns:xlink="http://www.w3.org/1999/xlink" version="1.1">
<metadata></metadata>
<defs>
<font id="caros_softmedium" horiz-adv-x="1337" >
<font-face units-per-em="2048" ascent="1638" descent="-410" />
<missing-glyph horiz-adv-x="612" />
<glyph unicode="&#xfb01;" horiz-adv-x="1317" d="M35 913v91q0 57 57 57h124v62q0 188 99 280t301 92q35 0 68 -3q53 -5 53 -60v-79q0 -59 -49 -56q-17 1 -50 1q-100 0 -144 -43.5t-44 -134.5v-59h652q57 0 57 -57v-947q0 -57 -57 -57h-119q-57 0 -57 57v799h-476v-799q0 -57 -58 -57h-119q-57 0 -57 57v799h-124 q-57 0 -57 57zM898 1350q0 61 41.5 102t102.5 41q62 0 104 -41t42 -102q0 -60 -42.5 -101.5t-103.5 -41.5t-102.5 41.5t-41.5 101.5z" />
<glyph unicode="&#xfb02;" horiz-adv-x="1311" d="M19 913v91q0 57 58 57h139v62q0 188 98.5 280t299.5 92q85 0 166 -29.5t141 -84.5v57q0 57 57 57h119q57 0 57 -57v-1381q0 -57 -57 -57h-119q-57 0 -57 57v1133q-116 108 -286 108q-99 0 -142 -43.5t-43 -134.5v-59h242q58 0 58 -57v-91q0 -57 -58 -57h-242v-799 q0 -57 -58 -57h-119q-57 0 -57 57v799h-139q-58 0 -58 57z" />
<glyph unicode="&#xfb03;" horiz-adv-x="2027" d="M45 913v91q0 57 57 57h114v62q0 188 100.5 280t308.5 92q78 0 153 -22q52 -15 39 -71l-17 -71q-13 -53 -69 -42q-45 9 -94 9q-99 0 -143 -43.5t-44 -134.5v-59h476v62q0 188 99 280t301 92q35 0 68 -3q53 -5 53 -60v-79q0 -59 -49 -56q-17 1 -50 1q-100 0 -144.5 -43.5 t-44.5 -134.5v-59h652q58 0 58 -57v-947q0 -57 -58 -57h-118q-58 0 -58 57v799h-476v-799q0 -57 -57 -57h-119q-57 0 -57 57v799h-476v-799q0 -57 -58 -57h-119q-57 0 -57 57v799h-114q-57 0 -57 57zM1608 1350q0 61 41.5 102t102.5 41q62 0 103.5 -41t41.5 -102 q0 -60 -42 -101.5t-103 -41.5t-102.5 41.5t-41.5 101.5z" />
<glyph unicode="&#xfb04;" horiz-adv-x="2021" d="M45 913v91q0 57 57 57h114v62q0 188 100.5 280t308.5 92q78 0 153 -22q52 -15 39 -71l-17 -71q-13 -53 -69 -42q-45 9 -94 9q-99 0 -143 -43.5t-44 -134.5v-59h476v62q0 188 98.5 280t299.5 92q84 0 165 -29.5t141 -84.5v57q0 57 58 57h118q58 0 58 -57v-1381 q0 -57 -58 -57h-118q-58 0 -58 57v1133q-123 108 -285 108q-99 0 -142.5 -43.5t-43.5 -134.5v-59h243q57 0 57 -57v-91q0 -57 -57 -57h-243v-799q0 -57 -57 -57h-119q-57 0 -57 57v799h-476v-799q0 -57 -58 -57h-119q-57 0 -57 57v799h-114q-57 0 -57 57z" />
<glyph horiz-adv-x="0" />
<glyph horiz-adv-x="0" />
<glyph horiz-adv-x="682" />
<glyph unicode="&#x9;" horiz-adv-x="0" />
<glyph unicode=" "  horiz-adv-x="612" />
<glyph unicode="&#x09;" horiz-adv-x="612" />
<glyph unicode="&#xa0;" horiz-adv-x="612" />
<glyph unicode="!" horiz-adv-x="636" d="M166 124q0 63 43.5 105.5t108.5 42.5t108.5 -42.5t43.5 -105.5q0 -64 -43.5 -106.5t-108.5 -42.5t-108.5 42.5t-43.5 106.5zM200 1375q-1 28 13.5 43.5t42.5 15.5h125q28 0 42.5 -15.5t13.5 -43.5l-31 -903q-2 -56 -59 -56h-57q-57 0 -59 56z" />
<glyph unicode="&#x22;" horiz-adv-x="998" d="M205 1374q-5 60 55 60h114q60 0 55 -60l-28 -383q-4 -55 -59 -55h-50q-56 0 -60 55zM568 1374q-2 29 12.5 44.5t43.5 15.5h113q29 0 43.5 -15.5t12.5 -44.5l-28 -383q-4 -55 -59 -55h-51q-55 0 -59 55z" />
<glyph unicode="#" horiz-adv-x="1410" d="M73 404v77q0 58 57 58h173l61 352h-158q-58 0 -58 57v76q0 57 58 57h190l51 300q9 53 63 53h111q29 0 42.5 -16.5t8.5 -46.5l-50 -290h290l52 300q9 53 62 53h111q29 0 42.5 -16.5t8.5 -46.5l-50 -290h142q57 0 57 -57v-76q0 -57 -57 -57h-174l-62 -352h160q58 0 58 -58 v-77q0 -57 -58 -57h-191l-50 -295q-9 -52 -63 -52h-110q-29 0 -43 16t-10 45l49 286h-289l-51 -295q-9 -52 -62 -52h-111q-61 0 -52 61l49 286h-140q-57 0 -57 57zM528 539h291l61 352h-290z" />
<glyph unicode="$" horiz-adv-x="1213" d="M130 1057q0 165 115 275t301 124v129q0 57 57 57h43q57 0 57 -57v-136q151 -24 257 -112.5t133 -237.5q5 -29 -10 -45.5t-45 -16.5h-130q-47 0 -62 53q-29 106 -143 143v-403q223 -56 326 -163.5t103 -271.5q0 -167 -115 -279.5t-314 -134.5v-133q0 -57 -57 -57h-43 q-57 0 -57 57v133q-221 29 -389 225q-35 40 3 81l37 40q39 42 81 1q130 -120 268 -139v457q-204 47 -310 152.5t-106 258.5zM375 1074q0 -130 171 -197v366q-77 -13 -124 -58.5t-47 -110.5zM703 196q85 19 134.5 70.5t49.5 123.5q0 143 -184 212v-406z" />
<glyph unicode="%" horiz-adv-x="1867" d="M90 1084q0 152 109 258t272 106t272.5 -106t109.5 -258t-109 -257.5t-273 -105.5q-163 0 -272 105.5t-109 257.5zM304 1084q0 -71 47 -123t120 -52t120 52t47 123t-47 122.5t-120 51.5t-120 -51.5t-47 -122.5zM511 98l678 1318q26 51 78 24l59 -33q50 -26 25 -77 l-678 -1318q-26 -51 -78 -23l-59 33q-49 26 -25 76zM1015 349q0 152 109 258t272 106t272.5 -106t109.5 -258t-109 -257.5t-273 -105.5q-163 0 -272 105.5t-109 257.5zM1229 349q0 -71 47 -123t120 -52t120 52t47 123t-47 122.5t-120 51.5t-120 -51.5t-47 -122.5z" />
<glyph unicode="&#x26;" horiz-adv-x="1511" d="M117 383q0 126 64.5 225.5t194.5 182.5q-83 89 -116.5 161t-33.5 155q0 150 118 250.5t284 100.5q155 0 263 -79t148 -228q7 -30 -7 -47t-44 -17h-111q-47 0 -65 49q-25 62 -71.5 97.5t-111.5 35.5q-73 0 -124 -47.5t-51 -112.5q0 -58 43.5 -123t151.5 -165l376 -349 q44 81 65 210q10 54 64 50l103 -9q59 -5 53 -63q-22 -185 -116 -349l154 -143q42 -40 2 -81l-68 -72q-38 -41 -81 -2l-147 135q-186 -173 -440 -173q-214 0 -355.5 117t-141.5 291zM349 398q0 -95 74 -160t191 -65q159 0 285 122l-379 353q-171 -109 -171 -250z" />
<glyph unicode="'" horiz-adv-x="640" d="M208 1374q-5 60 55 60h114q60 0 55 -60l-28 -383q-4 -55 -59 -55h-50q-55 0 -59 55z" />
<glyph unicode="(" horiz-adv-x="863" d="M233 624q0 258 90.5 496.5t255.5 418.5q34 38 79 7l74 -54q46 -34 9 -80q-129 -163 -197.5 -367t-68.5 -421q0 -216 68.5 -420.5t197.5 -367.5q37 -46 -9 -80l-74 -54q-45 -31 -77 5q-165 180 -256.5 419t-91.5 498z" />
<glyph unicode=")" horiz-adv-x="863" d="M121 -164q129 163 198 367.5t69 420.5q0 217 -69 421t-198 367q-36 46 10 80l74 54q46 32 78 -5q165 -181 256 -420t91 -497t-90.5 -496.5t-254.5 -418.5q-34 -39 -80 -7l-74 54q-46 34 -10 80z" />
<glyph unicode="*" horiz-adv-x="1144" d="M157 485q-28 51 22 78l212 116l-212 117q-50 26 -22 77l41 71q27 50 77 20l205 -124l-6 237q-1 28 14 43.5t43 15.5h82q28 0 43 -15.5t14 -43.5l-6 -237l204 125q51 30 79 -21l40 -71q29 -51 -21 -77l-213 -117l212 -116q50 -26 22 -78l-40 -70q-28 -51 -79 -21l-204 125 l6 -238q1 -28 -14 -43.5t-43 -15.5h-82q-28 0 -43 15.5t-14 43.5l6 238l-204 -125q-51 -30 -78 20z" />
<glyph unicode="+" horiz-adv-x="1184" d="M121 636v88q0 57 57 57h298v309q0 57 58 57h117q58 0 58 -57v-309h297q57 0 57 -57v-88q0 -57 -57 -57h-297v-310q0 -57 -58 -57h-117q-58 0 -58 57v310h-298q-57 0 -57 57z" />
<glyph unicode="," horiz-adv-x="612" d="M133 -258q-29 40 17 77q81 64 85 117.5t-53 123.5q-26 35 -26 76q0 54 43 95.5t109 41.5q65 0 107.5 -45.5t42.5 -123.5q0 -120 -62 -217.5t-184 -162.5q-45 -23 -79 18z" />
<glyph unicode="-" horiz-adv-x="835" d="M121 628v103q0 57 57 57h479q58 0 58 -57v-103q0 -58 -58 -58h-479q-57 0 -57 58z" />
<glyph unicode="." horiz-adv-x="612" d="M156 124q0 64 43 106.5t107 42.5q65 0 108 -42.5t43 -106.5q0 -63 -43.5 -106t-107.5 -43t-107 43t-43 106z" />
<glyph unicode="/" horiz-adv-x="957" d="M49 -177l647 1685q20 53 74 33l104 -41q53 -20 33 -74l-646 -1685q-20 -53 -74 -33l-105 41q-53 20 -33 74z" />
<glyph unicode="0" horiz-adv-x="1225" d="M119 717q0 214 53 378.5t166 263.5t274 99t274.5 -99t167 -263.5t53.5 -378.5t-53.5 -379t-167 -264t-274.5 -99t-274 99t-166 263.5t-53 379.5zM354 717q0 -245 64 -385.5t194 -140.5t194 140.5t64 385.5q0 244 -64 384t-194 140t-194 -140t-64 -384z" />
<glyph unicode="1" horiz-adv-x="1225" d="M246 1184q-28 51 22 78l287 154q33 18 71 18h120q58 0 58 -58v-1319q0 -57 -58 -57h-123q-58 0 -58 57v1143l-201 -109q-51 -28 -78 21z" />
<glyph unicode="2" horiz-adv-x="1225" d="M154 1079q30 167 152.5 273t306.5 106q199 0 329 -114.5t130 -299.5q0 -116 -47.5 -214.5t-154.5 -215.5l-371 -408h501q58 0 58 -58v-91q0 -57 -58 -57h-753q-58 0 -58 57v96q0 38 28 70l468 514q80 89 115 157.5t35 140.5q0 95 -63 155.5t-161 60.5q-82 0 -144 -48.5 t-87 -132.5q-15 -51 -64 -51h-108q-30 0 -44.5 16t-9.5 44z" />
<glyph unicode="3" horiz-adv-x="1225" d="M156 193q-31 42 10 79l43 37q42 36 85 -12q111 -117 253 -117q120 0 200 79.5t80 193.5q0 112 -80.5 191.5t-199.5 79.5q-10 0 -30 -2q-51 -6 -76 27l-30 38q-33 41 1 81l304 358h-476q-58 0 -58 57v93q0 58 58 58h701q57 0 57 -58v-108q0 -40 -26 -72l-285 -325 q172 -23 276 -146.5t104 -296.5q0 -86 -36.5 -167.5t-101.5 -145t-162.5 -102t-210.5 -38.5q-239 0 -400 218z" />
<glyph unicode="4" horiz-adv-x="1225" d="M78 333v111q0 40 21 72l591 881q23 37 69 37h131q57 0 57 -58v-888h104q57 0 57 -57v-98q0 -58 -57 -58h-104v-218q0 -57 -57 -57h-122q-57 0 -57 57v218h-576q-57 0 -57 58zM322 486h389v581z" />
<glyph unicode="5" horiz-adv-x="1225" d="M176 190q-32 43 11 80l45 38q42 36 81 -8q109 -119 252 -119q120 0 200 78t80 194t-80 193.5t-200 77.5q-104 0 -176 -65q-35 -32 -74 -27l-68 8q-56 6 -50 63l75 676q6 55 61 55h640q57 0 57 -58v-93q0 -57 -57 -57h-481l-43 -359q71 49 176 49q124 0 228 -55.5 t167 -162t63 -243.5q0 -212 -138.5 -346t-367.5 -134q-245 0 -401 215z" />
<glyph unicode="6" horiz-adv-x="1225" d="M102 453q0 138 71 250l448 693q23 38 69 38h125q35 0 46 -20t-8 -50l-298 -461q32 17 75 17q128 0 238.5 -55t180.5 -163.5t70 -248.5q0 -136 -71 -246.5t-187 -171t-249 -60.5q-135 0 -251.5 60.5t-187.5 171t-71 246.5zM338 454q0 -116 79 -195.5t194 -79.5 q114 0 193.5 79.5t79.5 195.5t-79.5 195.5t-193.5 79.5q-115 0 -194 -79.5t-79 -195.5z" />
<glyph unicode="7" horiz-adv-x="1225" d="M169 1282v94q0 58 57 58h782q57 0 57 -58v-101q0 -35 -14 -71l-484 -1160q-18 -44 -66 -44h-142q-32 0 -44.5 18.5t-0.5 48.5l487 1158h-575q-57 0 -57 57z" />
<glyph unicode="8" horiz-adv-x="1225" d="M113 423q0 124 68.5 222.5t186.5 140.5q-80 36 -132 116t-52 172q0 162 121.5 273t306.5 111t307 -111t122 -273q0 -92 -52 -172t-132 -116q119 -42 187 -140.5t68 -222.5q0 -190 -144 -319t-356 -129t-355.5 129t-143.5 319zM347 429q0 -105 76.5 -179t188.5 -74t189 74 t77 179t-77 179t-189 74t-188.5 -74t-76.5 -179zM410 1068q0 -78 58.5 -135t143.5 -57t144 57t59 135t-59 133.5t-144 55.5t-143.5 -55.5t-58.5 -133.5z" />
<glyph unicode="9" horiz-adv-x="1225" d="M105 980q0 136 71 246.5t187 171t249 60.5q135 0 252 -60.5t188 -171t71 -246.5q0 -140 -71 -250l-447 -692q-23 -38 -69 -38h-125q-35 0 -46 20t8 50l298 459q-30 -16 -76 -16q-95 0 -183 32.5t-156.5 91.5t-109.5 148.5t-41 194.5zM341 980q0 -117 79 -196t194 -79 q114 0 194 79t80 196q0 116 -79.5 195t-194.5 79q-114 0 -193.5 -79t-79.5 -195z" />
<glyph unicode=":" horiz-adv-x="612" d="M156 124q0 64 43 106.5t107 42.5q65 0 108 -42.5t43 -106.5q0 -63 -43.5 -106t-107.5 -43t-107 43t-43 106zM156 936q0 64 43 106.5t107 42.5q65 0 108 -42.5t43 -106.5q0 -63 -43.5 -106t-107.5 -43t-107 43t-43 106z" />
<glyph unicode=";" horiz-adv-x="612" d="M134 -259q-32 39 16 78q81 64 85 117.5t-53 123.5q-25 33 -25 76q0 54 42.5 95.5t109.5 41.5q65 0 107.5 -45.5t42.5 -123.5q0 -120 -62 -217.5t-184 -162.5q-47 -24 -79 17zM156 936q0 64 43 106.5t107 42.5q65 0 108 -42.5t43 -106.5q0 -63 -43.5 -106t-107.5 -43 t-107 43t-43 106z" />
<glyph unicode="&#x3c;" horiz-adv-x="1184" d="M133 635v87q0 48 40 69l725 411q51 29 79 -21l34 -60q27 -49 -20 -78l-573 -364l573 -366q47 -29 20 -77l-34 -60q-28 -50 -79 -21l-725 411q-40 21 -40 69z" />
<glyph unicode="=" horiz-adv-x="1184" d="M121 403v87q0 58 57 58h828q57 0 57 -58v-87q0 -57 -57 -57h-828q-57 0 -57 57zM121 868v87q0 58 57 58h828q57 0 57 -58v-87q0 -57 -57 -57h-828q-57 0 -57 57z" />
<glyph unicode="&#x3e;" horiz-adv-x="1184" d="M175 236q-27 48 20 77l574 366l-574 364q-48 29 -20 79l34 60q27 49 79 20l726 -411q40 -21 40 -69v-87q0 -48 -40 -69l-726 -411q-51 -29 -79 21z" />
<glyph unicode="?" horiz-adv-x="1127" d="M86 1067q22 184 161.5 287t334.5 103q203 0 331 -113t128 -284q0 -126 -55.5 -209t-199.5 -163q-72 -39 -98 -86t-30 -126q-3 -57 -57 -57h-127q-58 0 -56 59q5 147 53 225t181 156q79 47 112 93.5t33 115.5q0 77 -63 127.5t-162 50.5q-96 0 -161.5 -49t-82.5 -135 q-10 -54 -60 -54h-126q-29 0 -44 15.5t-12 43.5zM389 124q0 63 43.5 105.5t108.5 42.5t108.5 -42.5t43.5 -105.5q0 -64 -43.5 -106.5t-108.5 -42.5t-108.5 42.5t-43.5 106.5z" />
<glyph unicode="@" horiz-adv-x="1977" d="M74 563q0 188 72 355t194.5 285t290.5 186.5t354 68.5q258 0 469 -112t330.5 -307.5t119.5 -434.5q0 -222 -118.5 -357t-305.5 -135q-79 0 -148.5 38t-104.5 102q-109 -140 -290 -140q-172 0 -287 127t-115 311t115 311.5t287 127.5q158 0 267 -117v39q0 58 58 58h81 q58 0 58 -58v-503q0 -56 28 -90t75 -34q90 0 152 85.5t62 235.5q0 142 -59 270t-158 219.5t-234 145t-282 53.5q-148 0 -282.5 -57t-232 -154t-155 -232.5t-57.5 -286.5q0 -203 97.5 -370t270.5 -263.5t385 -96.5q241 0 440 121q54 31 78 -22l22 -47q24 -52 -22 -78 q-244 -139 -518 -139q-264 0 -478.5 116.5t-336.5 321.5t-122 457zM733 550q0 -114 67.5 -188.5t168.5 -74.5t167.5 74.5t66.5 188.5t-66.5 188.5t-167.5 74.5t-168.5 -74.5t-67.5 -188.5z" />
<glyph unicode="A" horiz-adv-x="1404" d="M66 66l486 1322q16 46 65 46h170q50 0 66 -46l485 -1322q11 -30 -2 -48t-44 -18h-139q-50 0 -66 46l-103 300h-564l-104 -300q-16 -46 -65 -46h-139q-31 0 -44 18t-2 48zM486 548h433l-217 623z" />
<glyph unicode="B" horiz-adv-x="1272" d="M164 57v1319q0 58 57 58h465q194 0 305 -104t111 -280q0 -107 -49.5 -181.5t-133.5 -107.5q113 -28 188 -121t75 -227q0 -184 -117.5 -298.5t-312.5 -114.5h-531q-57 0 -57 57zM403 204h323q94 0 153 60t59 159q0 100 -58.5 159.5t-153.5 59.5h-323v-438zM403 839h265 q88 0 141.5 51t53.5 143q0 93 -53.5 145t-141.5 52h-265v-391z" />
<glyph unicode="C" horiz-adv-x="1552" d="M81 717q0 157 56 295t152.5 235.5t230 154t284.5 56.5q238 0 409 -119t240 -331q10 -29 -3.5 -47t-44.5 -18h-137q-48 0 -66 46q-51 123 -157 190t-238 67q-96 0 -183.5 -37.5t-153.5 -104.5t-105 -167.5t-39 -219.5t40 -220t107.5 -168t156 -104.5t186.5 -37.5 q282 0 457 236q20 27 44 27q17 0 36 -14l55 -40q27 -20 27 -45q0 -16 -11 -34q-214 -342 -620 -342q-151 0 -284.5 56.5t-230 154t-152.5 236t-56 295.5z" />
<glyph unicode="D" horiz-adv-x="1460" d="M164 57v1319q0 58 57 58h446q325 0 518.5 -194.5t193.5 -522.5t-193 -522.5t-519 -194.5h-446q-57 0 -57 57zM406 212h256q217 0 345 129.5t128 375.5q0 245 -128 375t-345 130h-256v-1010z" />
<glyph unicode="E" horiz-adv-x="1164" d="M164 57v1319q0 58 57 58h756q57 0 57 -58v-93q0 -57 -57 -57h-571v-403h520q57 0 57 -57v-91q0 -58 -57 -58h-520v-410h589q58 0 58 -57v-93q0 -57 -58 -57h-774q-57 0 -57 57z" />
<glyph unicode="F" horiz-adv-x="1092" d="M164 57v1319q0 58 57 58h735q58 0 58 -58v-94q0 -57 -58 -57h-550v-408h499q58 0 58 -57v-93q0 -58 -58 -58h-499v-552q0 -57 -58 -57h-127q-57 0 -57 57z" />
<glyph unicode="G" horiz-adv-x="1580" d="M81 717q0 157 58 295.5t156 235.5t230.5 153.5t278.5 56.5q242 0 412 -115.5t243 -309.5q10 -30 -3 -47.5t-45 -17.5h-143q-47 0 -68 44q-56 110 -157.5 171.5t-235.5 61.5q-94 0 -180.5 -37.5t-153.5 -104t-107 -167t-40 -219.5q0 -116 40.5 -216.5t108.5 -168.5 t157.5 -106.5t185.5 -38.5q164 0 282.5 101t136.5 259h-400q-58 0 -58 57v83q0 57 58 57h605q57 0 57 -47q0 -169 -51 -305.5t-141.5 -227.5t-216 -140t-274.5 -49q-147 0 -282.5 57.5t-235 155.5t-158.5 236t-59 293z" />
<glyph unicode="H" horiz-adv-x="1437" d="M164 57v1319q0 58 57 58h127q58 0 58 -58v-552h625v552q0 58 58 58h126q58 0 58 -58v-1319q0 -57 -58 -57h-126q-58 0 -58 57v558h-625v-558q0 -57 -58 -57h-127q-57 0 -57 57z" />
<glyph unicode="I" horiz-adv-x="602" d="M180 57v1319q0 58 58 58h127q57 0 57 -58v-1319q0 -57 -57 -57h-127q-58 0 -58 57z" />
<glyph unicode="J" horiz-adv-x="941" d="M69 120l23 65q14 38 47 38q12 0 28 -6q83 -30 154 -30q227 0 227 267v922q0 58 57 58h127q58 0 58 -58v-927q0 -238 -113 -356t-322 -118q-138 0 -261 69q-30 17 -30 48q0 13 5 28z" />
<glyph unicode="K" horiz-adv-x="1249" d="M164 57v1319q0 58 57 58h127q58 0 58 -58v-534h76q139 0 227 50.5t136.5 168t53.5 312.5q2 60 58 60h127q28 0 43 -15.5t14 -44.5q-15 -516 -299 -671l376 -633q18 -29 6.5 -49t-45.5 -20h-152q-46 0 -68 39l-352 598q-36 -4 -81 -4h-120v-576q0 -57 -58 -57h-127 q-57 0 -57 57z" />
<glyph unicode="L" horiz-adv-x="1058" d="M164 57v1319q0 58 57 58h127q58 0 58 -58v-1167h553q58 0 58 -57v-95q0 -57 -58 -57h-738q-57 0 -57 57z" />
<glyph unicode="M" horiz-adv-x="1841" d="M164 57v1319q0 58 57 58h135q48 0 69 -40l496 -874l495 874q21 40 69 40h134q57 0 57 -58v-1319q0 -57 -57 -57h-116q-57 0 -57 57v949l-442 -772q-21 -39 -69 -39h-30q-47 0 -68 39l-443 772v-949q0 -57 -57 -57h-116q-57 0 -57 57z" />
<glyph unicode="N" horiz-adv-x="1439" d="M164 57v1319q0 58 57 58h138q46 0 69 -38l618 -995v975q0 58 57 58h116q57 0 57 -58v-1319q0 -57 -57 -57h-139q-45 0 -68 38l-618 994v-975q0 -57 -57 -57h-116q-57 0 -57 57z" />
<glyph unicode="O" horiz-adv-x="1684" d="M81 717q0 206 100 376t274.5 267.5t386.5 97.5q159 0 300 -57.5t242.5 -156t160.5 -236t59 -291.5t-59 -291.5t-160.5 -236.5t-242.5 -156.5t-300 -57.5t-300 57.5t-242 156.5t-160 236.5t-59 291.5zM326 717q0 -147 68.5 -269t187 -191.5t260.5 -69.5t261 69.5 t187.5 191.5t68.5 269q0 223 -150 376t-367 153t-366.5 -153t-149.5 -376z" />
<glyph unicode="P" horiz-adv-x="1213" d="M164 57v1319q0 58 57 58h425q227 0 362 -125.5t135 -331.5q0 -207 -135 -332t-362 -125h-240v-463q0 -57 -58 -57h-127q-57 0 -57 57zM406 723h225q128 0 198.5 68t70.5 186q0 117 -70.5 185t-198.5 68h-225v-507z" />
<glyph unicode="Q" horiz-adv-x="1684" d="M81 717q0 206 100 376t274.5 267.5t386.5 97.5q159 0 300 -57.5t242.5 -156t160.5 -236t59 -291.5q0 -146 -52 -275.5t-146 -230.5l161 -174q19 -20 19 -39q0 -22 -23 -42l-74 -66q-20 -17 -39 -17q-21 0 -42 22l-171 184q-180 -104 -395 -104q-159 0 -300 57.5 t-242 156.5t-160 236.5t-59 291.5zM326 717q0 -147 68.5 -269t187 -191.5t260.5 -69.5q128 0 241 61l-183 199q-18 20 -18 40q0 22 22 42l73 66q21 19 40 19q22 0 42 -23l187 -206q113 142 113 332q0 223 -150 376t-367 153t-366.5 -153t-149.5 -376z" />
<glyph unicode="R" horiz-adv-x="1242" d="M164 57v1319q0 58 57 58h425q228 0 362.5 -124.5t134.5 -330.5q0 -166 -89 -280t-248 -152l320 -477q20 -29 9.5 -49.5t-45.5 -20.5h-138q-45 0 -68 37l-326 488h-154v-468q0 -57 -57 -57h-126q-57 0 -57 57zM404 725h228q127 0 197.5 68t70.5 184q0 117 -70.5 185 t-197.5 68h-228v-505z" />
<glyph unicode="S" horiz-adv-x="1213" d="M130 1057q0 178 130 289.5t336 111.5q123 0 225 -37.5t176 -120.5t96 -201q5 -29 -10 -45.5t-45 -16.5h-130q-47 0 -62 53q-21 77 -85 118t-155 41q-101 0 -166 -48.5t-65 -126.5q0 -86 71.5 -143t229.5 -93q238 -54 347 -163.5t109 -279.5q0 -186 -140 -303t-376 -117 q-128 0 -246 60t-213 171q-17 19 -17 39q0 21 20 42l37 40q20 21 40 21t41 -20q156 -144 331 -144q123 0 200.5 56.5t77.5 149.5q0 90 -72 152.5t-244 98.5q-217 46 -329 152t-112 264z" />
<glyph unicode="T" horiz-adv-x="1132" d="M59 1282v94q0 58 58 58h898q57 0 57 -58v-94q0 -57 -57 -57h-328v-1168q0 -57 -57 -57h-127q-58 0 -58 57v1168h-328q-58 0 -58 57z" />
<glyph unicode="U" horiz-adv-x="1364" d="M152 496v880q0 58 57 58h127q57 0 57 -58v-897q0 -129 82.5 -209.5t206.5 -80.5t206.5 80.5t82.5 209.5v897q0 58 57 58h127q57 0 57 -58v-880q0 -153 -71 -272t-191 -183t-268 -64t-268 64t-191 183t-71 272z" />
<glyph unicode="V" horiz-adv-x="1403" d="M66 1368q-11 30 2 48t44 18h136q49 0 65 -46l388 -1093l390 1093q16 46 65 46h136q31 0 44 -18t2 -48l-486 -1322q-16 -46 -66 -46h-170q-49 0 -65 46z" />
<glyph unicode="W" horiz-adv-x="1998" d="M59 1369q-8 29 5 47t44 18h135q51 0 63 -50l269 -1041l291 1042q13 49 64 49h139q50 0 64 -50l289 -1041l271 1041q12 50 63 50h135q31 0 43.5 -18t4.5 -47l-372 -1321q-13 -48 -64 -48h-142q-51 0 -64 48l-298 1055l-299 -1055q-13 -48 -63 -48h-141q-51 0 -64 48z" />
<glyph unicode="X" horiz-adv-x="1303" d="M70 20q-11 20 8 50l427 660l-408 634q-19 29 -8 49.5t45 20.5h136q46 0 69 -38l312 -494l313 494q23 38 68 38h137q35 0 45.5 -20t-8.5 -50l-408 -634l428 -660q19 -30 8 -50t-46 -20h-136q-47 0 -70 38l-331 520l-330 -520q-23 -38 -70 -38h-135q-35 0 -46 20z" />
<glyph unicode="Y" horiz-adv-x="1325" d="M75.5 1414q11.5 20 45.5 20h135q46 0 68 -39l339 -580l337 580q22 39 68 39h136q34 0 45.5 -20t-6.5 -49l-460 -782v-526q0 -57 -57 -57h-127q-57 0 -57 57v526l-460 782q-18 29 -6.5 49z" />
<glyph unicode="Z" horiz-adv-x="1239" d="M120 57v108q0 37 22 71l678 989h-612q-57 0 -57 57v94q0 58 57 58h844q57 0 57 -58v-107q0 -36 -23 -71l-677 -989h663q57 0 57 -57v-95q0 -57 -57 -57h-895q-57 0 -57 57z" />
<glyph unicode="[" horiz-adv-x="863" d="M228 -229v1708q0 57 58 57h475q57 0 57 -57v-95q0 -57 -57 -57h-291v-1405h291q57 0 57 -57v-94q0 -58 -57 -58h-475q-58 0 -58 58z" />
<glyph unicode="\" horiz-adv-x="957" d="M49 1426q-20 54 33 74l104 41q54 20 74 -33l647 -1685q20 -54 -33 -74l-105 -41q-54 -20 -74 33z" />
<glyph unicode="]" horiz-adv-x="863" d="M45 -135q0 57 57 57h291v1405h-291q-57 0 -57 57v95q0 57 57 57h476q57 0 57 -57v-1708q0 -58 -57 -58h-476q-57 0 -57 58v94z" />
<glyph unicode="^" horiz-adv-x="1266" d="M263 1078l233 320q24 36 69 36h135q46 0 70 -36l232 -320q33 -45 -12 -80l-41 -29q-45 -34 -81 7l-235 261l-236 -261q-36 -41 -81 -7l-41 29q-46 34 -12 80z" />
<glyph unicode="_" horiz-adv-x="1024" d="M0 -242q0 58 57 58h910q57 0 57 -58v-72q0 -58 -57 -58h-910q-57 0 -57 58v72z" />
<glyph unicode="`" horiz-adv-x="861" d="M237 1383q-41 43 6 81l57 46q46 37 81 -10l182 -251q33 -46 -10 -80l-22 -16q-42 -33 -80 6z" />
<glyph unicode="a" d="M71 530q0 153 66.5 280t185.5 201t266 74q228 0 373 -169v88q0 57 57 57h118q57 0 57 -57v-947q0 -57 -57 -57h-118q-57 0 -57 57v86q-69 -79 -164.5 -123.5t-208.5 -44.5q-147 0 -266 74t-185.5 201t-66.5 280zM307 530q0 -146 94.5 -246.5t233.5 -100.5t233 100.5 t94 246.5t-93.5 247t-233.5 101t-234 -101t-94 -247z" />
<glyph unicode="b" horiz-adv-x="1355" d="M142 57v1381q0 57 58 57h117q58 0 58 -57v-522q68 80 163.5 124.5t210.5 44.5q110 0 206.5 -43.5t164.5 -118t107 -177t39 -216.5q0 -153 -66 -280t-185 -201t-266 -74q-114 0 -210 44.5t-164 123.5v-86q0 -57 -58 -57h-117q-58 0 -58 57zM375 530q0 -146 94 -246.5 t233 -100.5q138 0 233 100.5t95 246.5t-94 247t-234 101t-233.5 -101t-93.5 -247z" />
<glyph unicode="c" horiz-adv-x="1209" d="M71 530q0 116 43 219t116 176.5t175.5 116.5t216.5 43q178 0 307.5 -83t187.5 -231q11 -29 -3 -47t-45 -18h-135q-45 0 -68 44q-34 61 -95.5 94.5t-141.5 33.5q-130 0 -226 -98.5t-96 -249.5q0 -154 101.5 -250.5t245.5 -96.5q172 0 291 132q22 26 46 26q16 0 34 -12 l46 -32q30 -20 30 -45q0 -16 -12 -35q-77 -119 -191 -180.5t-256 -61.5q-156 0 -287 72.5t-207.5 200t-76.5 282.5z" />
<glyph unicode="d" d="M71 530q0 153 66.5 280t185.5 201t266 74q228 0 373 -169v522q0 57 57 57h118q57 0 57 -57v-1381q0 -57 -57 -57h-118q-57 0 -57 57v86q-69 -79 -164.5 -123.5t-208.5 -44.5q-147 0 -266 74t-185.5 201t-66.5 280zM307 530q0 -146 94.5 -246.5t233.5 -100.5t233 100.5 t94 246.5t-93.5 247t-233.5 101t-234 -101t-94 -247z" />
<glyph unicode="e" horiz-adv-x="1259" d="M71 530q0 114 43.5 216.5t118.5 177t181 118t226 43.5q118 0 220.5 -42.5t174 -114.5t112.5 -170t41 -207q0 -14 -2 -40q-4 -52 -62 -52h-816q17 -127 113.5 -209t235.5 -82q179 0 317 118q21 19 41 19q21 0 40 -20l44 -43q22 -21 22 -42q0 -20 -19 -39 q-184 -186 -442 -186q-130 0 -240.5 43.5t-186.5 118t-119 176.5t-43 217zM315 637h630q-23 113 -106 184.5t-200 71.5q-116 0 -205.5 -72t-118.5 -184z" />
<glyph unicode="f" horiz-adv-x="774" d="M19 913v91q0 57 58 57h139v62q0 188 98.5 280t299.5 92q32 0 62 -3q53 -5 53 -60v-79q0 -56 -43 -56h-4q-16 1 -47 1q-99 0 -142 -43.5t-43 -134.5v-59h222q57 0 57 -57v-91q0 -57 -57 -57h-222v-799q0 -57 -58 -57h-119q-57 0 -57 57v799h-139q-58 0 -58 57z" />
<glyph unicode="g" d="M71 530q0 153 66.5 280t185.5 201t266 74q228 0 373 -169v88q0 57 57 57h118q57 0 57 -57v-956q0 -238 -144.5 -380.5t-405.5 -142.5q-250 0 -435 187q-20 21 -20 42q0 20 19 40l42 45q20 20 40 20t41 -18q133 -115 306 -115q149 0 237 82t88 225v110 q-69 -79 -164.5 -123.5t-208.5 -44.5q-147 0 -266 74t-185.5 201t-66.5 280zM307 530q0 -146 94.5 -246.5t233.5 -100.5t233 100.5t94 246.5t-93.5 247t-233.5 101t-234 -101t-94 -247z" />
<glyph unicode="h" horiz-adv-x="1245" d="M142 57v1381q0 57 58 57h119q58 0 58 -57v-518q56 76 140 120.5t182 44.5q192 0 308 -118t116 -313v-597q0 -57 -57 -57h-119q-57 0 -57 57v577q0 100 -68 172t-171 72q-112 0 -193 -83.5t-81 -210.5v-527q0 -57 -58 -57h-119q-58 0 -58 57z" />
<glyph unicode="i" horiz-adv-x="549" d="M130 1350q0 61 41.5 102t102.5 41q62 0 104 -41t42 -102q0 -60 -42.5 -101.5t-103.5 -41.5t-102.5 41.5t-41.5 101.5zM158 57v947q0 57 57 57h119q57 0 57 -57v-947q0 -57 -57 -57h-119q-57 0 -57 57z" />
<glyph unicode="j" horiz-adv-x="549" d="M-37 -329q0 58 28 58h28q71 0 105 35.5t34 118.5v1121q0 57 57 57h119q57 0 57 -57v-1126q0 -183 -81.5 -268t-246.5 -85q-25 0 -48 3q-52 4 -52 60v83zM130 1350q0 61 41.5 102t102.5 41q62 0 104 -41t42 -102q0 -60 -42.5 -101.5t-103.5 -41.5t-102.5 41.5t-41.5 101.5 z" />
<glyph unicode="k" horiz-adv-x="1076" d="M142 57v1381q0 57 58 57h119q58 0 58 -57v-751h101q115 0 188.5 76t84.5 239q5 59 58 59h119q56 0 56 -54v-6q-8 -168 -67.5 -285t-164.5 -176l277 -471q18 -29 6.5 -49t-45.5 -20h-139q-46 0 -68 39l-260 447h-146v-429q0 -57 -58 -57h-119q-58 0 -58 57z" />
<glyph unicode="l" horiz-adv-x="549" d="M158 57v1381q0 57 57 57h119q57 0 57 -57v-1381q0 -57 -57 -57h-119q-57 0 -57 57z" />
<glyph unicode="m" horiz-adv-x="1922" d="M142 57v947q0 57 58 57h119q58 0 58 -57v-81q57 76 135.5 119t169.5 43q119 0 214.5 -58.5t145.5 -161.5q54 102 147 161t205 59q175 0 290.5 -119t115.5 -312v-597q0 -57 -57 -57h-120q-57 0 -57 57v577q0 108 -61 176t-159 68q-101 0 -179 -87.5t-78 -206.5v-527 q0 -57 -58 -57h-120q-57 0 -57 57v577q0 108 -61 176t-159 68q-99 0 -178 -84.5t-79 -209.5v-527q0 -57 -58 -57h-119q-58 0 -58 57z" />
<glyph unicode="n" horiz-adv-x="1245" d="M142 57v947q0 57 58 57h119q58 0 58 -57v-84q56 76 140 120.5t182 44.5q192 0 308 -118t116 -313v-597q0 -57 -57 -57h-119q-57 0 -57 57v577q0 107 -66.5 175.5t-172.5 68.5q-112 0 -193 -83.5t-81 -210.5v-527q0 -57 -58 -57h-119q-58 0 -58 57z" />
<glyph unicode="o" horiz-adv-x="1304" d="M71 530q0 152 75 279.5t208.5 201.5t297.5 74t297.5 -74t208.5 -201.5t75 -279.5t-75 -279.5t-208.5 -201.5t-297.5 -74t-297.5 74t-208.5 201.5t-75 279.5zM307 530q0 -146 99.5 -246.5t245.5 -100.5t245.5 100.5t99.5 246.5t-99.5 247t-245.5 101t-245.5 -101 t-99.5 -247z" />
<glyph unicode="p" d="M142 -418v1422q0 57 58 57h117q58 0 58 -57v-88q68 80 163.5 124.5t210.5 44.5q110 0 206.5 -43.5t164.5 -118t107 -177t39 -216.5q0 -153 -66 -280t-185 -201t-266 -74q-114 0 -210 44.5t-164 123.5v-561q0 -57 -58 -57h-117q-58 0 -58 57zM375 530q0 -146 94 -246.5 t233 -100.5q138 0 233 100.5t95 246.5t-94 247t-234 101t-233.5 -101t-93.5 -247z" />
<glyph unicode="q" d="M71 530q0 153 66.5 280t185.5 201t266 74q228 0 373 -169v88q0 57 57 57h118q57 0 57 -57v-1422q0 -57 -57 -57h-118q-57 0 -57 57v561q-69 -79 -164.5 -123.5t-208.5 -44.5q-147 0 -266 74t-185.5 201t-66.5 280zM307 530q0 -146 94.5 -246.5t233.5 -100.5t233 100.5 t94 246.5t-93.5 247t-233.5 101t-234 -101t-94 -247z" />
<glyph unicode="r" horiz-adv-x="827" d="M142 57v947q0 57 58 57h119q58 0 58 -57v-90q54 77 135 124t178 47q22 0 42 -3q47 -6 47 -54v-10l-8 -97q-3 -49 -48 -49q-7 0 -15 1q-28 5 -53 5q-113 0 -195.5 -86t-82.5 -215v-520q0 -57 -58 -57h-119q-58 0 -58 57z" />
<glyph unicode="s" horiz-adv-x="961" d="M106 783q0 132 101.5 217t268.5 85q148 0 246.5 -67t134.5 -191q8 -29 -6.5 -46t-44.5 -17h-112q-24 0 -38 11.5t-25 36.5q-38 80 -142 80q-66 0 -108.5 -31t-42.5 -81q0 -108 193 -147q183 -37 272 -120t89 -217q0 -141 -109.5 -231t-296.5 -90q-214 0 -362 168 q-17 19 -17 39q0 21 18 42l29 34q19 22 39 22q19 0 41 -19q109 -93 240 -93q86 0 136 35.5t50 95.5q0 59 -48 96t-160 59q-346 69 -346 329z" />
<glyph unicode="t" horiz-adv-x="793" d="M19 913v91q0 57 58 57h146v203q0 52 50 62l120 28q29 7 46.5 -6.5t17.5 -43.5v-243h213q57 0 57 -57v-91q0 -57 -57 -57h-213v-503q0 -90 43 -132t141 -42q26 0 39 1h4q55 0 55 -55v-66q0 -51 -43 -65q-60 -19 -127 -19q-169 0 -257.5 92t-88.5 276v513h-146 q-58 0 -58 57z" />
<glyph unicode="u" horiz-adv-x="1245" d="M122 407v597q0 57 57 57h119q57 0 57 -57v-577q0 -107 66.5 -175.5t172.5 -68.5q113 0 193.5 85.5t80.5 214.5v521q0 57 58 57h120q57 0 57 -57v-947q0 -57 -57 -57h-120q-58 0 -58 57v83q-56 -75 -140 -119.5t-182 -44.5q-192 0 -308 118t-116 313z" />
<glyph unicode="v" horiz-adv-x="1085" d="M48 995q-11 30 2 48t44 18h124q50 0 66 -46l259 -724l259 724q16 46 65 46h124q31 0 44 -18t2 -48l-353 -949q-16 -46 -67 -46h-149q-51 0 -67 46z" />
<glyph unicode="w" horiz-adv-x="1614" d="M44 996q-9 30 3.5 47.5t43.5 17.5h123q51 0 64 -48l201 -713l196 712q13 49 63 49h138q50 0 63 -49l197 -712l200 713q13 48 64 48h124q31 0 43.5 -17.5t3.5 -47.5l-296 -949q-14 -47 -65 -47h-141q-50 0 -63 48l-199 705l-198 -705q-13 -48 -63 -48h-142q-50 0 -64 47z " />
<glyph unicode="x" horiz-adv-x="1085" d="M62 20.5q-11 20.5 9 49.5l321 471l-296 450q-19 30 -8.5 50t45.5 20h128q47 0 70 -38l212 -330l211 330q23 38 69 38h129q35 0 45.5 -20t-8.5 -50l-297 -450l323 -471q20 -29 9 -49.5t-46 -20.5h-129q-45 0 -69 37l-237 351l-239 -351q-24 -37 -68 -37h-128 q-35 0 -46 20.5z" />
<glyph unicode="y" horiz-adv-x="1087" d="M48 994q-11 30 1.5 48.5t44.5 18.5h124q50 0 66 -46l259 -717l261 717q16 46 65 46h124q32 0 44.5 -18.5t1.5 -48.5l-539 -1424q-16 -45 -66 -45h-125q-32 0 -44.5 18t-1.5 48l162 411z" />
<glyph unicode="z" horiz-adv-x="1043" d="M95 57v99q0 38 26 70l519 631h-461q-57 0 -57 57v90q0 57 57 57h686q58 0 58 -57v-100q0 -38 -26 -70l-518 -630h507q57 0 57 -58v-89q0 -57 -57 -57h-733q-58 0 -58 57z" />
<glyph unicode="{" horiz-adv-x="863" d="M143 574v100q0 48 56 59q68 13 105.5 60t37.5 121v292q0 140 101.5 235t254.5 95h65q57 0 57 -57v-95q0 -57 -57 -57h-32q-64 0 -105.5 -41.5t-41.5 -106.5v-308q0 -197 -187 -246q187 -51 187 -247v-308q0 -65 41.5 -106.5t105.5 -41.5h32q57 0 57 -57v-94 q0 -58 -57 -58h-65q-153 0 -254.5 95t-101.5 234v293q0 73 -37.5 120t-105.5 60q-56 11 -56 59z" />
<glyph unicode="|" horiz-adv-x="669" d="M223 -229v1708q0 57 58 57h108q57 0 57 -57v-1708q0 -58 -57 -58h-108q-58 0 -58 58z" />
<glyph unicode="}" horiz-adv-x="863" d="M43 -135q0 57 57 57h31q65 0 106.5 42t41.5 106v308q0 196 187 247q-187 49 -187 246v308q0 65 -41.5 106.5t-106.5 41.5h-31q-57 0 -57 57v95q0 57 57 57h65q153 0 254 -95t101 -235v-292q0 -74 38.5 -121t106.5 -60q55 -11 55 -59v-100q0 -48 -55 -59 q-68 -13 -106.5 -60t-38.5 -120v-293q0 -139 -101 -234t-254 -95h-65q-57 0 -57 58v94z" />
<glyph unicode="~" horiz-adv-x="1184" d="M73 609q33 131 107.5 200.5t187.5 69.5q138 0 252 -104q38 -35 57 -51.5t50 -33.5t56 -17q73 0 106 107q15 57 68 45l110 -25q58 -13 44 -69q-33 -130 -107.5 -199.5t-187.5 -69.5q-142 0 -252 103q-35 33 -56 51t-52 35t-56 17q-72 0 -105 -108q-15 -57 -69 -45l-109 26 q-57 13 -44 68z" />
<glyph unicode="&#xa1;" horiz-adv-x="636" d="M166 937q0 63 43.5 105.5t108.5 42.5t108.5 -42.5t43.5 -105.5t-44 -106t-108 -43q-65 0 -108.5 43t-43.5 106zM200 -314l31 902q2 56 59 56h57q57 0 59 -56l31 -902q1 -28 -13.5 -43.5t-42.5 -15.5h-125q-28 0 -42.5 15.5t-13.5 43.5z" />
<glyph unicode="&#xa2;" horiz-adv-x="1209" d="M71 530q0 219 138.5 373.5t350.5 177.5v111q0 57 57 57h45q57 0 57 -57v-114q142 -22 245 -101t153 -206q10 -30 -3 -47.5t-45 -17.5h-135q-45 0 -68 44q-49 86 -147 112v-674q132 21 225 127q38 42 81 13l46 -32q48 -32 18 -79q-133 -207 -370 -236v-112q0 -57 -57 -57 h-45q-57 0 -57 57v113q-210 28 -349.5 181.5t-139.5 366.5zM307 530q0 -127 71 -216t182 -119v674q-108 -26 -180.5 -117.5t-72.5 -221.5z" />
<glyph unicode="&#xa3;" horiz-adv-x="1183" d="M140 622v63q0 57 58 57h71q-28 67 -41 102t-27 94t-14 109q0 173 128.5 292t316.5 119q166 0 285 -94.5t154 -258.5q7 -29 -7.5 -46t-44.5 -17h-122q-47 0 -62 52q-24 73 -78 112.5t-125 39.5q-86 0 -143 -58.5t-57 -145.5q0 -33 9.5 -74t19 -69t30 -81t28.5 -76h304 q58 0 58 -57v-63q0 -58 -58 -58h-264q1 -11 1 -33q0 -200 -137 -319h594q57 0 57 -57v-98q0 -57 -57 -57h-813q-58 0 -58 57v104q0 42 36 69q133 110 133 294q0 27 -1 40h-116q-58 0 -58 58z" />
<glyph unicode="&#xa4;" horiz-adv-x="1292" d="M110 196q-40 38 0 80l142 144q-79 111 -79 248q0 136 79 247l-142 143q-41 41 0 81l62 62q41 41 82 0l150 -149q108 61 242 61t242 -61l150 149q42 40 82 0l62 -61q41 -41 1 -82l-143 -143q79 -113 79 -247q0 -135 -79 -248l143 -144q39 -41 -1 -80l-63 -63 q-40 -40 -81 0l-150 150q-113 -62 -242 -62t-242 62l-150 -150q-41 -41 -82 0zM397 668q0 -104 72 -177t177 -73t177 73t72 177t-72 177t-177 73t-177 -73t-72 -177z" />
<glyph unicode="&#xa5;" horiz-adv-x="1325" d="M75.5 1414q11.5 20 45.5 20h135q46 0 68 -39l339 -580l337 580q22 39 68 39h136q34 0 45.5 -20t-6.5 -49l-365 -622h218q57 0 57 -57v-22q0 -58 -57 -58h-299l-14 -23v-81h313q57 0 57 -58v-22q0 -57 -57 -57h-313v-308q0 -57 -57 -57h-127q-57 0 -57 57v308h-314 q-57 0 -57 57v22q0 58 57 58h314v81l-15 23h-299q-57 0 -57 58v22q0 57 57 57h219l-365 622q-18 29 -6.5 49z" />
<glyph unicode="&#xa6;" horiz-adv-x="669" d="M223 -229v704q0 57 58 57h108q57 0 57 -57v-704q0 -58 -57 -58h-108q-58 0 -58 58zM223 774v705q0 57 58 57h108q57 0 57 -57v-705q0 -57 -57 -57h-108q-58 0 -58 57z" />
<glyph unicode="&#xa7;" horiz-adv-x="1039" d="M130 1156q0 135 107 218.5t289 83.5q155 0 256 -70.5t140 -200.5q8 -29 -6.5 -46.5t-44.5 -17.5h-119q-46 0 -64 44q-46 109 -157 109q-69 0 -110.5 -34.5t-41.5 -87.5q0 -52 56.5 -90t186.5 -76q170 -51 244.5 -129.5t74.5 -198.5q0 -91 -51 -160.5t-140 -108.5 q90 -38 142 -107t52 -161q0 -147 -106.5 -237.5t-307.5 -90.5q-207 0 -373 175q-39 42 5 81l31 27q39 34 80 -1q121 -100 245 -100q88 0 132.5 37.5t44.5 96.5q0 60 -44.5 97.5t-167.5 69.5q-178 45 -264 126t-86 209q0 96 50.5 166t141.5 109q-195 84 -195 268zM369 640 q0 -69 42 -111.5t130 -62.5q74 17 119 63.5t45 110.5q0 69 -42.5 111.5t-130.5 62.5q-74 -17 -118.5 -63.5t-44.5 -110.5z" />
<glyph unicode="&#xa8;" horiz-adv-x="861" d="M106 1323q0 55 39 93.5t95 38.5q57 0 95 -38t38 -94t-38 -94.5t-95 -38.5q-56 0 -95 38.5t-39 94.5zM487 1323q0 55 39 93.5t95 38.5q57 0 95 -38t38 -94t-38 -94.5t-95 -38.5q-56 0 -95 38.5t-39 94.5z" />
<glyph unicode="&#xa9;" horiz-adv-x="1643" d="M80 717q0 153 58 290t157 236t236 157t290 58t290.5 -58t236.5 -157t157 -236t58 -290t-58 -290.5t-157 -236.5t-236.5 -157t-290.5 -58t-290 58t-236 157t-157 236.5t-58 290.5zM204 717q0 -172 82 -316t224 -227t311 -83t311.5 83t224.5 227t82 316q0 129 -48.5 244.5 t-131 198.5t-197 132t-241.5 49q-169 0 -311 -82.5t-224 -226t-82 -315.5zM417 715q0 175 113 289.5t285 114.5q137 0 232 -63t134 -166q10 -29 -4 -47t-45 -18h-69q-42 0 -68 44q-53 87 -167 87q-92 0 -159.5 -65.5t-67.5 -175.5q0 -112 72 -178t176 -66q110 0 194 76 q38 37 80 12l18 -11q51 -30 18 -79q-120 -161 -323 -161q-179 0 -299 116t-120 291z" />
<glyph unicode="&#xaa;" horiz-adv-x="940" d="M62 1061q0 163 105 276t259 113q142 0 224 -103v29q0 58 58 58h82q57 0 57 -58v-631q0 -57 -57 -57h-82q-58 0 -58 57v29q-84 -102 -224 -102q-154 0 -259 112.5t-105 276.5zM261 1061q0 -91 55 -151t140 -60t139 60t54 151q0 90 -54 150.5t-139 60.5t-140 -60.5 t-55 -150.5z" />
<glyph unicode="&#xab;" horiz-adv-x="1310" d="M101 602v71q0 44 38 69l435 284q50 31 79 -18l14 -23q27 -45 -15 -80l-330 -268l330 -267q42 -34 16 -80l-15 -24q-29 -49 -79 -18l-436 284q-37 24 -37 70zM612 602v71q0 44 38 69l435 284q50 31 79 -18l14 -23q27 -45 -15 -80l-330 -268l330 -267q42 -34 16 -80 l-15 -24q-29 -49 -79 -18l-436 284q-37 24 -37 70z" />
<glyph unicode="&#xac;" horiz-adv-x="1184" d="M121 636v88q0 57 57 57h828q57 0 57 -57v-431q0 -57 -57 -57h-118q-58 0 -58 57v286h-652q-57 0 -57 57z" />
<glyph unicode="&#xad;" horiz-adv-x="835" d="M121 628v103q0 57 57 57h479q58 0 58 -57v-103q0 -58 -58 -58h-479q-57 0 -57 58z" />
<glyph unicode="&#xae;" horiz-adv-x="1643" d="M80 717q0 153 58 290t157 236t236 157t290 58t290.5 -58t236.5 -157t157 -236t58 -290t-58 -290.5t-157 -236.5t-236.5 -157t-290.5 -58t-290 58t-236 157t-157 236.5t-58 290.5zM204 717q0 -172 82 -316t224 -227t311 -83t311.5 83t224.5 227t82 316q0 129 -48.5 244.5 t-131 198.5t-197 132t-241.5 49q-169 0 -311 -82.5t-224 -226t-82 -315.5zM565 380v671q0 57 58 57h234q121 0 199.5 -72.5t78.5 -182.5q0 -82 -45.5 -144t-121.5 -89l142 -229q18 -30 7 -49t-46 -19h-58q-47 0 -69 37l-146 238h-64v-218q0 -57 -57 -57h-54q-58 0 -58 57z M734 736h107q56 0 90.5 30.5t34.5 79.5t-34.5 79t-90.5 30h-107v-219z" />
<glyph unicode="&#xaf;" horiz-adv-x="861" d="M123 1287v64q0 57 57 57h500q57 0 57 -57v-64q0 -57 -57 -57h-500q-57 0 -57 57z" />
<glyph unicode="&#xb0;" horiz-adv-x="817" d="M119 1178q0 118 83.5 198t206.5 80q122 0 205 -80t83 -198t-83 -198.5t-205 -80.5q-123 0 -206.5 80.5t-83.5 198.5zM284 1178q0 -53 35.5 -89t89.5 -36t89.5 36t35.5 89t-35.5 89t-89.5 36t-89.5 -35.5t-35.5 -89.5z" />
<glyph unicode="&#xb1;" horiz-adv-x="1184" d="M121 57v87q0 58 57 58h828q57 0 57 -58v-87q0 -57 -57 -57h-828q-57 0 -57 57zM121 728v87q0 57 57 57h298v297q0 58 58 58h117q58 0 58 -58v-297h297q57 0 57 -57v-87q0 -57 -57 -57h-297v-296q0 -58 -58 -58h-117q-58 0 -58 58v296h-298q-57 0 -57 57z" />
<glyph unicode="&#xb2;" horiz-adv-x="818" d="M71 1191q26 126 112.5 196.5t211.5 70.5q142 0 234.5 -80t92.5 -209q0 -80 -32.5 -147.5t-105.5 -147.5l-228 -246h298q58 0 58 -58v-50q0 -57 -58 -57h-502q-58 0 -58 57v48q0 39 28 71l306 336q51 55 72.5 98.5t21.5 90.5q0 56 -35.5 92t-92.5 36q-47 0 -83 -29 t-53 -82q-17 -52 -63 -52h-71q-30 0 -44.5 16.5t-8.5 45.5z" />
<glyph unicode="&#xb3;" horiz-adv-x="818" d="M97 582q-33 42 9 80l20 16q41 36 81 -4q75 -72 163 -72q70 0 117.5 48.5t47.5 118.5q0 69 -47.5 117t-117.5 48q-10 0 -14 -1q-51 -5 -75 26l-14 17q-35 40 0 81l180 211h-283q-58 0 -58 57v51q0 58 58 58h468q57 0 57 -58v-54q0 -40 -26 -72l-170 -193 q109 -25 175.5 -108t66.5 -196q0 -133 -99 -224t-259 -91q-164 0 -280 144z" />
<glyph unicode="&#xb4;" horiz-adv-x="861" d="M284 1249l183 251q35 47 81 10l57 -46q47 -38 6 -81l-214 -224q-38 -40 -81 -6l-21 16q-44 35 -11 80z" />
<glyph unicode="&#xb5;" horiz-adv-x="1265" d="M142 -418v1422q0 57 58 57h118q58 0 58 -57v-584q0 -97 69 -167t169 -70q112 0 193.5 83.5t81.5 210.5v527q0 57 57 57h120q57 0 57 -57v-947q0 -57 -57 -57h-120q-57 0 -57 57v83q-56 -75 -140.5 -119.5t-182.5 -44.5q-107 0 -190 40v-434q0 -57 -58 -57h-118 q-58 0 -58 57z" />
<glyph unicode="&#xb6;" horiz-adv-x="1196" d="M79 991q0 187 131.5 315t323.5 128h434q57 0 57 -58v-1587q0 -57 -57 -57h-49q-58 0 -58 57v1487h-109v-1487q0 -57 -58 -57h-49q-57 0 -57 57v760h-54q-192 0 -323.5 127.5t-131.5 314.5z" />
<glyph unicode="&#xb7;" horiz-adv-x="612" d="M156 667q0 64 43 106.5t107 42.5q65 0 108 -42.5t43 -106.5q0 -63 -43.5 -106t-107.5 -43t-107 43t-43 106z" />
<glyph unicode="&#xb8;" horiz-adv-x="861" d="M169 -379q-12 28 2.5 46.5t45.5 18.5h46q23 0 37.5 -10t30.5 -33q31 -43 89 -43q49 0 76.5 25t27.5 66q0 38 -30 65t-72 27h-7q-50 -2 -76 21q-8 8 -8 50v89q0 57 57 57h43q57 0 57 -57v-52q99 -6 154.5 -64t55.5 -139q0 -95 -75.5 -157.5t-191.5 -62.5q-87 0 -158 41 t-104 112z" />
<glyph unicode="&#xb9;" horiz-adv-x="818" d="M157 1242q-27 51 23 77l181 97q36 18 71 18h75q57 0 57 -58v-856q0 -57 -57 -57h-86q-57 0 -57 57v715l-108 -58q-52 -27 -77 23z" />
<glyph unicode="&#xba;" horiz-adv-x="940" d="M62 1061q0 163 118.5 276t289.5 113q170 0 288.5 -113t118.5 -276t-118.5 -276t-288.5 -113q-171 0 -289.5 113t-118.5 276zM261 1061q0 -91 59.5 -151t149.5 -60q89 0 148.5 60t59.5 151q0 90 -59.5 150.5t-148.5 60.5q-90 0 -149.5 -60.5t-59.5 -150.5z" />
<glyph unicode="&#xbb;" horiz-adv-x="1310" d="M132 290q-26 48 14 80l332 267l-332 268q-40 33 -14 80l13 23q29 49 79 18l436 -284q38 -23 38 -69v-71q0 -45 -38 -70l-436 -284q-51 -32 -79 19zM643 290q-26 48 14 80l332 267l-332 268q-40 33 -14 80l13 23q29 49 79 18l436 -284q38 -23 38 -69v-71q0 -45 -38 -70 l-436 -284q-51 -32 -79 19z" />
<glyph unicode="&#xbc;" horiz-adv-x="1971" d="M157 1242q-27 51 23 77l181 97q36 18 71 18h75q57 0 57 -58v-856q0 -57 -57 -57h-86q-57 0 -57 57v715l-108 -58q-52 -27 -77 23zM585 94l645 1322q25 53 77 26l54 -29q50 -24 25 -77l-646 -1322q-24 -52 -76 -25l-54 27q-50 26 -25 78zM1191 239v56q0 37 21 71l386 568 q24 37 69 37h85q57 0 57 -58v-564h50q57 0 57 -57v-53q0 -58 -57 -58h-50v-124q0 -57 -57 -57h-82q-57 0 -57 57v124h-365q-57 0 -57 58zM1397 347h216v327z" />
<glyph unicode="&#xbd;" horiz-adv-x="1971" d="M157 1242q-27 51 23 77l181 97q36 18 71 18h75q57 0 57 -58v-856q0 -57 -57 -57h-86q-57 0 -57 57v715l-108 -58q-52 -27 -77 23zM585 94l645 1322q25 53 77 26l54 -29q50 -24 25 -77l-646 -1322q-24 -52 -76 -25l-54 27q-50 26 -25 78zM1225 728q26 126 112.5 196.5 t211.5 70.5q142 0 234.5 -79.5t92.5 -208.5q0 -80 -32.5 -147.5t-105.5 -147.5l-228 -247h298q58 0 58 -57v-51q0 -57 -58 -57h-502q-58 0 -58 57v48q0 39 28 71l306 336q51 55 72.5 98.5t21.5 90.5q0 56 -35.5 92t-92.5 36q-47 0 -83 -29t-53 -82q-16 -51 -63 -51h-71 q-30 0 -44.5 16t-8.5 45z" />
<glyph unicode="&#xbe;" horiz-adv-x="1971" d="M97 582q-33 42 9 80l20 16q41 36 81 -4q75 -72 163 -72q70 0 117.5 48.5t47.5 118.5q0 69 -47.5 117t-117.5 48q-10 0 -14 -1q-51 -5 -75 26l-14 17q-35 40 0 81l180 211h-283q-58 0 -58 57v51q0 58 58 58h468q57 0 57 -58v-54q0 -40 -26 -72l-170 -193 q109 -25 175.5 -108t66.5 -196q0 -133 -99 -224t-259 -91q-164 0 -280 144zM585 94l645 1322q25 53 77 26l54 -29q50 -24 25 -77l-646 -1322q-24 -52 -76 -25l-54 27q-50 26 -25 78zM1191 239v56q0 37 21 71l386 568q24 37 69 37h85q57 0 57 -58v-564h50q57 0 57 -57v-53 q0 -58 -57 -58h-50v-124q0 -57 -57 -57h-82q-57 0 -57 57v124h-365q-57 0 -57 58zM1397 347h216v327z" />
<glyph unicode="&#xbf;" horiz-adv-x="1127" d="M84 0q0 120 57 206.5t198 165.5q73 40 99 86.5t30 126.5q3 57 57 57h127q59 0 57 -59q-5 -147 -53.5 -225t-181.5 -156q-80 -47 -112 -93t-32 -116q0 -77 62 -128t161 -51q96 0 162 49t83 135q10 54 59 54h126q29 0 44 -15.5t12 -43.5q-15 -124 -86.5 -213.5t-176.5 -133 t-232 -43.5q-203 0 -331.5 113.5t-128.5 283.5zM433 937q0 63 43.5 105.5t108.5 42.5t108.5 -42.5t43.5 -105.5t-43.5 -106t-108.5 -43q-64 0 -108 43t-44 106z" />
<glyph unicode="&#xc0;" horiz-adv-x="1404" d="M66 66l486 1322q16 46 65 46h170q50 0 66 -46l485 -1322q11 -30 -2 -48t-44 -18h-139q-50 0 -66 46l-103 300h-564l-104 -300q-16 -46 -65 -46h-139q-31 0 -44 18t-2 48zM476 1781q-41 43 6 81l58 46q46 37 81 -11l182 -250q33 -46 -10 -80l-22 -17q-43 -34 -81 6z M486 548h433l-217 623z" />
<glyph unicode="&#xc1;" horiz-adv-x="1404" d="M66 66l486 1322q16 46 65 46h170q50 0 66 -46l485 -1322q11 -30 -2 -48t-44 -18h-139q-50 0 -66 46l-103 300h-564l-104 -300q-16 -46 -65 -46h-139q-31 0 -44 18t-2 48zM486 548h433l-217 623zM603 1647l183 250q35 48 81 11l58 -46q47 -38 6 -81l-214 -225 q-38 -40 -81 -6l-22 17q-44 35 -11 80z" />
<glyph unicode="&#xc2;" horiz-adv-x="1404" d="M66 66l486 1322q16 46 65 46h170q50 0 66 -46l485 -1322q11 -30 -2 -48t-44 -18h-139q-50 0 -66 46l-103 300h-564l-104 -300q-16 -46 -65 -46h-139q-31 0 -44 18t-2 48zM397 1627l169 231q24 35 70 35h132q47 0 70 -34l169 -232q33 -45 -11 -80l-21 -16q-43 -34 -81 6 l-192 201l-192 -201q-38 -40 -81 -6l-21 16q-44 35 -11 80zM486 548h433l-217 623z" />
<glyph unicode="&#xc3;" horiz-adv-x="1404" d="M66 66l486 1322q16 46 65 46h170q50 0 66 -46l485 -1322q11 -30 -2 -48t-44 -18h-139q-50 0 -66 46l-103 300h-564l-104 -300q-16 -46 -65 -46h-139q-31 0 -44 18t-2 48zM355 1664q53 167 189 167q73 0 154 -52q3 -2 14 -9t14.5 -9.5t13 -8.5t14.5 -8.5l13 -6.5 t13.5 -5.5t12 -3t12.5 -1.5q31 0 49 37q25 52 71 43l80 -16q28 -5 39.5 -23.5t3.5 -46.5q-51 -167 -188 -167q-75 0 -154 54q-73 50 -108 50q-32 0 -49 -37q-23 -52 -70 -43l-81 16q-28 5 -39.5 23.5t-3.5 46.5zM486 548h433l-217 623z" />
<glyph unicode="&#xc4;" horiz-adv-x="1404" d="M66 66l486 1322q16 46 65 46h170q50 0 66 -46l485 -1322q11 -30 -2 -48t-44 -18h-139q-50 0 -66 46l-103 300h-564l-104 -300q-16 -46 -65 -46h-139q-31 0 -44 18t-2 48zM378 1704q0 56 38.5 94t94.5 38q57 0 95 -38t38 -94t-38 -94.5t-95 -38.5q-56 0 -94.5 38.5 t-38.5 94.5zM486 548h433l-217 623zM759 1704q0 56 38.5 94t94.5 38q57 0 95 -38t38 -94t-38 -94.5t-95 -38.5q-56 0 -94.5 38.5t-38.5 94.5z" />
<glyph unicode="&#xc5;" horiz-adv-x="1404" d="M66 66l486 1322q16 46 65 46h170q50 0 66 -46l485 -1322q11 -30 -2 -48t-44 -18h-139q-50 0 -66 46l-103 300h-564l-104 -300q-16 -46 -65 -46h-139q-31 0 -44 18t-2 48zM478 1725q0 88 64 147t159 59q96 0 160 -59t64 -147t-64 -146.5t-160 -58.5q-95 0 -159 58.5 t-64 146.5zM486 548h433l-217 623zM621 1725q0 -34 22.5 -56t57.5 -22t58 22t23 56t-23 57t-58 23q-34 0 -57 -23t-23 -57z" />
<glyph unicode="&#xc6;" horiz-adv-x="1899" d="M43.5 20q-11.5 20 5.5 49l747 1325q21 40 68 40h848q57 0 57 -58v-93q0 -57 -57 -57h-554v-403h504q57 0 57 -57v-91q0 -58 -57 -58h-504v-410h573q57 0 57 -57v-93q0 -57 -57 -57h-756q-57 0 -57 57v289h-450l-167 -306q-21 -40 -69 -40h-143q-34 0 -45.5 20zM577 548 h341v619z" />
<glyph unicode="&#xc7;" horiz-adv-x="1552" d="M81 717q0 157 56 295t152.5 235.5t230 154t284.5 56.5q238 0 409 -119t240 -331q10 -29 -3.5 -47t-44.5 -18h-137q-48 0 -66 46q-51 123 -157 190t-238 67q-96 0 -183.5 -37.5t-153.5 -104.5t-105 -167.5t-39 -219.5t40 -220t107.5 -168t156 -104.5t186.5 -37.5 q282 0 457 236q35 47 80 14l55 -40q43 -33 16 -80q-194 -309 -543 -337v-89q99 -6 154.5 -64t55.5 -139q0 -95 -76 -157.5t-192 -62.5q-87 0 -158 41t-104 112q-12 28 2.5 46.5t45.5 18.5h46q23 0 37.5 -10t30.5 -33q31 -43 89 -43q49 0 76.5 25t27.5 66q0 38 -30 65t-72 27 h-7q-50 -2 -76 21q-8 8 -8 50v126q-182 19 -328.5 118t-230 261t-83.5 358z" />
<glyph unicode="&#xc8;" horiz-adv-x="1164" d="M164 57v1319q0 58 57 58h756q57 0 57 -58v-93q0 -57 -57 -57h-571v-403h520q57 0 57 -57v-91q0 -58 -57 -58h-520v-410h589q58 0 58 -57v-93q0 -57 -58 -57h-774q-57 0 -57 57zM352 1781q-41 43 6 81l58 46q46 37 81 -11l182 -250q33 -46 -10 -80l-22 -17q-43 -34 -81 6z " />
<glyph unicode="&#xc9;" horiz-adv-x="1164" d="M164 57v1319q0 58 57 58h756q57 0 57 -58v-93q0 -57 -57 -57h-571v-403h520q57 0 57 -57v-91q0 -58 -57 -58h-520v-410h589q58 0 58 -57v-93q0 -57 -58 -57h-774q-57 0 -57 57zM522 1647l184 250q35 47 80 11l58 -46q47 -38 6 -81l-214 -225q-38 -40 -81 -6l-21 17 q-45 35 -12 80z" />
<glyph unicode="&#xca;" horiz-adv-x="1164" d="M164 57v1319q0 58 57 58h756q57 0 57 -58v-93q0 -57 -57 -57h-571v-403h520q57 0 57 -57v-91q0 -58 -57 -58h-520v-410h589q58 0 58 -57v-93q0 -57 -58 -57h-774q-57 0 -57 57zM295 1627l169 231q24 35 70 35h132q46 0 69 -34l169 -232q33 -46 -10 -80l-22 -16 q-42 -33 -80 6l-192 201l-192 -201q-38 -40 -81 -6l-22 16q-43 34 -10 80z" />
<glyph unicode="&#xcb;" horiz-adv-x="1164" d="M164 57v1319q0 58 57 58h756q57 0 57 -58v-93q0 -57 -57 -57h-571v-403h520q57 0 57 -57v-91q0 -58 -57 -58h-520v-410h589q58 0 58 -57v-93q0 -57 -58 -57h-774q-57 0 -57 57zM266 1704q0 56 38.5 94t94.5 38q57 0 95 -38t38 -94t-38 -94.5t-95 -38.5q-56 0 -94.5 38.5 t-38.5 94.5zM647 1704q0 56 38.5 94t94.5 38q57 0 95 -38t38 -94t-38 -94.5t-95 -38.5q-56 0 -94.5 38.5t-38.5 94.5z" />
<glyph unicode="&#xcc;" horiz-adv-x="602" d="M94 1781q-41 43 6 81l58 46q46 37 81 -11l182 -250q33 -46 -10 -80l-22 -17q-43 -34 -81 6zM180 57v1319q0 58 58 58h127q57 0 57 -58v-1319q0 -57 -57 -57h-127q-58 0 -58 57z" />
<glyph unicode="&#xcd;" horiz-adv-x="602" d="M166 1647l183 250q35 48 81 11l57 -46q48 -39 7 -81l-214 -225q-38 -40 -81 -6l-22 17q-44 35 -11 80zM180 57v1319q0 58 58 58h127q57 0 57 -58v-1319q0 -57 -57 -57h-127q-58 0 -58 57z" />
<glyph unicode="&#xce;" horiz-adv-x="602" d="M-4 1627l169 231q24 35 69 35h133q46 0 69 -34l169 -232q33 -46 -10 -80l-22 -16q-42 -33 -80 6l-192 201l-192 -201q-38 -40 -81 -6l-22 16q-43 34 -10 80zM180 57v1319q0 58 58 58h127q57 0 57 -58v-1319q0 -57 -57 -57h-127q-58 0 -58 57z" />
<glyph unicode="&#xcf;" horiz-adv-x="602" d="M-24 1704q0 55 39 93.5t95 38.5q57 0 95 -38t38 -94t-38 -94.5t-95 -38.5q-56 0 -95 38.5t-39 94.5zM180 57v1319q0 58 58 58h127q57 0 57 -58v-1319q0 -57 -57 -57h-127q-58 0 -58 57zM357 1704q0 56 38.5 94t94.5 38q57 0 95.5 -38t38.5 -94t-38.5 -94.5t-95.5 -38.5 q-56 0 -94.5 38.5t-38.5 94.5z" />
<glyph unicode="&#xd0;" horiz-adv-x="1497" d="M18 689v54q0 58 58 58h126v575q0 58 57 58h446q325 0 518 -194.5t193 -522.5t-192.5 -522.5t-518.5 -194.5h-446q-57 0 -57 57v575h-126q-58 0 -58 57zM443 212h256q217 0 344.5 129.5t127.5 375.5t-128 375.5t-344 129.5h-256v-421h231q57 0 57 -58v-54q0 -57 -57 -57 h-231v-420z" />
<glyph unicode="&#xd1;" horiz-adv-x="1439" d="M164 57v1319q0 58 57 58h138q46 0 69 -38l618 -995v975q0 58 57 58h116q57 0 57 -58v-1319q0 -57 -57 -57h-139q-45 0 -68 38l-618 994v-975q0 -57 -57 -57h-116q-57 0 -57 57zM373 1664q53 167 188 167q74 0 155 -52q4 -3 15.5 -10.5t16.5 -11t15 -9.5t16 -8.5t14 -6 t15 -5t14 -1.5q31 0 49 37q25 52 71 43l80 -16q28 -5 39.5 -23.5t3.5 -46.5q-51 -167 -187 -167q-76 0 -155 54q-73 50 -108 50q-32 0 -49 -37q-23 -52 -69 -43l-81 16q-28 5 -39.5 23.5t-3.5 46.5z" />
<glyph unicode="&#xd2;" horiz-adv-x="1684" d="M81 717q0 206 100 376t274.5 267.5t386.5 97.5q159 0 300 -57.5t242.5 -156t160.5 -236t59 -291.5t-59 -291.5t-160.5 -236.5t-242.5 -156.5t-300 -57.5t-300 57.5t-242 156.5t-160 236.5t-59 291.5zM326 717q0 -147 68.5 -269t187 -191.5t260.5 -69.5t261 69.5 t187.5 191.5t68.5 269q0 223 -150 376t-367 153t-366.5 -153t-149.5 -376zM631 1781q-41 43 6 81l57 46q46 37 81 -11l182 -250q33 -46 -10 -80l-21 -17q-43 -34 -81 6z" />
<glyph unicode="&#xd3;" horiz-adv-x="1684" d="M81 717q0 206 100 376t274.5 267.5t386.5 97.5q159 0 300 -57.5t242.5 -156t160.5 -236t59 -291.5t-59 -291.5t-160.5 -236.5t-242.5 -156.5t-300 -57.5t-300 57.5t-242 156.5t-160 236.5t-59 291.5zM326 717q0 -147 68.5 -269t187 -191.5t260.5 -69.5t261 69.5 t187.5 191.5t68.5 269q0 223 -150 376t-367 153t-366.5 -153t-149.5 -376zM712 1647l183 250q35 48 81 11l57 -46q47 -38 6 -81l-214 -225q-38 -40 -81 -6l-21 17q-44 35 -11 80z" />
<glyph unicode="&#xd4;" horiz-adv-x="1684" d="M81 717q0 206 100 376t274.5 267.5t386.5 97.5q159 0 300 -57.5t242.5 -156t160.5 -236t59 -291.5t-59 -291.5t-160.5 -236.5t-242.5 -156.5t-300 -57.5t-300 57.5t-242 156.5t-160 236.5t-59 291.5zM326 717q0 -147 68.5 -269t187 -191.5t260.5 -69.5t261 69.5 t187.5 191.5t68.5 269q0 223 -150 376t-367 153t-366.5 -153t-149.5 -376zM538 1627l169 231q24 35 69 35h132q47 0 70 -34l169 -232q33 -46 -10 -80l-22 -16q-43 -34 -81 6l-191 201l-193 -201q-38 -40 -81 -6l-21 16q-43 34 -10 80z" />
<glyph unicode="&#xd5;" horiz-adv-x="1684" d="M81 717q0 206 100 376t274.5 267.5t386.5 97.5q159 0 300 -57.5t242.5 -156t160.5 -236t59 -291.5t-59 -291.5t-160.5 -236.5t-242.5 -156.5t-300 -57.5t-300 57.5t-242 156.5t-160 236.5t-59 291.5zM326 717q0 -147 68.5 -269t187 -191.5t260.5 -69.5t261 69.5 t187.5 191.5t68.5 269q0 223 -150 376t-367 153t-366.5 -153t-149.5 -376zM496 1664q53 167 188 167q74 0 155 -52q4 -3 15.5 -10.5t16.5 -11t15 -9.5t16 -8.5t14 -6t15 -5t14 -1.5q31 0 49 37q25 52 71 43l80 -16q28 -5 39.5 -23.5t3.5 -46.5q-51 -167 -188 -167 q-75 0 -154 54q-73 50 -108 50q-32 0 -49 -37q-23 -52 -69 -43l-81 16q-28 5 -39.5 23.5t-3.5 46.5z" />
<glyph unicode="&#xd6;" horiz-adv-x="1684" d="M81 717q0 206 100 376t274.5 267.5t386.5 97.5q159 0 300 -57.5t242.5 -156t160.5 -236t59 -291.5t-59 -291.5t-160.5 -236.5t-242.5 -156.5t-300 -57.5t-300 57.5t-242 156.5t-160 236.5t-59 291.5zM326 717q0 -147 68.5 -269t187 -191.5t260.5 -69.5t261 69.5 t187.5 191.5t68.5 269q0 223 -150 376t-367 153t-366.5 -153t-149.5 -376zM518 1704q0 56 38.5 94t94.5 38q57 0 95 -38t38 -94t-38 -94.5t-95 -38.5q-56 0 -94.5 38.5t-38.5 94.5zM899 1704q0 56 38.5 94t94.5 38q57 0 95 -38t38 -94t-38 -94.5t-95 -38.5q-56 0 -94.5 38.5 t-38.5 94.5z" />
<glyph unicode="&#xd7;" horiz-adv-x="1184" d="M179 417l258 258l-258 259q-40 42 1 81l74 74q42 42 82 0l256 -259l257 259q40 42 82 0l73 -73q41 -41 1 -82l-259 -259l259 -258q41 -41 -1 -82l-73 -73q-41 -41 -82 0l-257 257l-257 -257q-40 -40 -81 -1l-74 74q-42 41 -1 82z" />
<glyph unicode="&#xd8;" horiz-adv-x="1684" d="M81 717q0 206 100 376t274.5 267.5t386.5 97.5q207 0 387 -99l110 141q34 45 80 10l39 -27q48 -34 11 -81l-108 -137q115 -102 179 -244t64 -304q0 -154 -59 -291.5t-160.5 -236.5t-242.5 -156.5t-300 -57.5q-225 0 -406 110l-117 -148q-34 -45 -79 -12l-39 28 q-49 35 -12 81l118 148q-107 102 -166.5 240t-59.5 295zM326 717q0 -203 126 -350l639 815q-116 64 -249 64q-217 0 -366.5 -153t-149.5 -376zM574 261q123 -74 268 -74q142 0 261 69.5t187.5 191.5t68.5 269q0 214 -140 364z" />
<glyph unicode="&#xd9;" horiz-adv-x="1364" d="M152 496v880q0 58 57 58h127q57 0 57 -58v-897q0 -129 82.5 -209.5t206.5 -80.5t206.5 80.5t82.5 209.5v897q0 58 57 58h127q57 0 57 -58v-880q0 -153 -71 -272t-191 -183t-268 -64t-268 64t-191 183t-71 272zM467 1781q-41 43 6 81l57 46q46 37 81 -11l183 -250 q33 -45 -11 -80l-21 -17q-43 -34 -81 6z" />
<glyph unicode="&#xda;" horiz-adv-x="1364" d="M152 496v880q0 58 57 58h127q57 0 57 -58v-897q0 -129 82.5 -209.5t206.5 -80.5t206.5 80.5t82.5 209.5v897q0 58 57 58h127q57 0 57 -58v-880q0 -153 -71 -272t-191 -183t-268 -64t-268 64t-191 183t-71 272zM558 1647l183 250q35 48 81 11l58 -46q47 -38 6 -81 l-214 -225q-38 -40 -81 -6l-22 17q-44 35 -11 80z" />
<glyph unicode="&#xdb;" horiz-adv-x="1364" d="M152 496v880q0 58 57 58h127q57 0 57 -58v-897q0 -129 82.5 -209.5t206.5 -80.5t206.5 80.5t82.5 209.5v897q0 58 57 58h127q57 0 57 -58v-880q0 -153 -71 -272t-191 -183t-268 -64t-268 64t-191 183t-71 272zM378 1627l169 231q24 35 69 35h133q46 0 69 -34l169 -232 q33 -46 -10 -80l-22 -16q-43 -34 -81 6l-191 201l-193 -201q-38 -39 -80 -6l-22 16q-43 34 -10 80z" />
<glyph unicode="&#xdc;" horiz-adv-x="1364" d="M152 496v880q0 58 57 58h127q57 0 57 -58v-897q0 -129 82.5 -209.5t206.5 -80.5t206.5 80.5t82.5 209.5v897q0 58 57 58h127q57 0 57 -58v-880q0 -153 -71 -272t-191 -183t-268 -64t-268 64t-191 183t-71 272zM358 1704q0 55 39 93.5t95 38.5q57 0 95 -38t38 -94 t-38 -94.5t-95 -38.5q-56 0 -95 38.5t-39 94.5zM739 1704q0 56 38.5 94t94.5 38q57 0 95.5 -38t38.5 -94t-38.5 -94.5t-95.5 -38.5q-56 0 -94.5 38.5t-38.5 94.5z" />
<glyph unicode="&#xdd;" horiz-adv-x="1325" d="M75.5 1414q11.5 20 45.5 20h135q46 0 68 -39l339 -580l337 580q22 39 68 39h136q34 0 45.5 -20t-6.5 -49l-460 -782v-526q0 -57 -57 -57h-127q-57 0 -57 57v526l-460 782q-18 29 -6.5 49zM539 1647l183 250q35 48 81 11l57 -46q47 -38 6 -81l-214 -225q-38 -40 -81 -6 l-21 17q-44 35 -11 80z" />
<glyph unicode="&#xde;" horiz-adv-x="1213" d="M164 57v1319q0 58 57 58h127q58 0 58 -58v-202h240q227 0 362 -125.5t135 -331.5q0 -207 -135 -332t-362 -125h-240v-203q0 -57 -58 -57h-127q-57 0 -57 57zM406 463h225q128 0 198.5 68t70.5 186q0 117 -70.5 185t-198.5 68h-225v-507z" />
<glyph unicode="&#xdf;" horiz-adv-x="1253" d="M152 57v1319q0 58 57 58h686q57 0 57 -58v-111q0 -38 -18 -71l-175 -323q180 -9 295 -135.5t115 -307.5q0 -199 -117.5 -326t-324.5 -127q-119 0 -226 68q-41 26 -26 76l18 52q18 53 74 32q73 -26 139 -26q105 0 164.5 76t59.5 200q0 112 -81 191.5t-200 79.5 q-9 0 -27 -2q-51 -6 -74 32l-23 36q-23 39 -4 78l185 358h-317v-1169q0 -57 -57 -57h-123q-57 0 -57 57z" />
<glyph unicode="&#xe0;" d="M71 530q0 153 66.5 280t185.5 201t266 74q228 0 373 -169v88q0 57 57 57h118q57 0 57 -57v-947q0 -57 -57 -57h-118q-57 0 -57 57v86q-69 -79 -164.5 -123.5t-208.5 -44.5q-147 0 -266 74t-185.5 201t-66.5 280zM307 530q0 -146 94.5 -246.5t233.5 -100.5t233 100.5 t94 246.5t-93.5 247t-233.5 101t-234 -101t-94 -247zM452 1449q-41 43 6 81l57 46q46 37 81 -10l182 -251q33 -46 -10 -80l-22 -16q-42 -33 -80 6z" />
<glyph unicode="&#xe1;" d="M71 530q0 153 66.5 280t185.5 201t266 74q228 0 373 -169v88q0 57 57 57h118q57 0 57 -57v-947q0 -57 -57 -57h-118q-57 0 -57 57v86q-69 -79 -164.5 -123.5t-208.5 -44.5q-147 0 -266 74t-185.5 201t-66.5 280zM307 530q0 -146 94.5 -246.5t233.5 -100.5t233 100.5 t94 246.5t-93.5 247t-233.5 101t-234 -101t-94 -247zM539 1315l183 251q35 47 81 10l57 -46q47 -38 6 -81l-214 -224q-38 -40 -81 -6l-21 16q-44 35 -11 80z" />
<glyph unicode="&#xe2;" d="M71 530q0 153 66.5 280t185.5 201t266 74q228 0 373 -169v88q0 57 57 57h118q57 0 57 -57v-947q0 -57 -57 -57h-118q-57 0 -57 57v86q-69 -79 -164.5 -123.5t-208.5 -44.5q-147 0 -266 74t-185.5 201t-66.5 280zM307 530q0 -146 94.5 -246.5t233.5 -100.5t233 100.5 t94 246.5t-93.5 247t-233.5 101t-234 -101t-94 -247zM350 1295l169 231q24 36 70 36h132q46 0 70 -35l168 -232q33 -46 -10 -80l-21 -16q-43 -34 -81 6l-192 201l-192 -201q-38 -40 -81 -6l-22 16q-43 34 -10 80z" />
<glyph unicode="&#xe3;" d="M71 530q0 153 66.5 280t185.5 201t266 74q228 0 373 -169v88q0 57 57 57h118q57 0 57 -57v-947q0 -57 -57 -57h-118q-57 0 -57 57v86q-69 -79 -164.5 -123.5t-208.5 -44.5q-147 0 -266 74t-185.5 201t-66.5 280zM307 530q0 -146 94.5 -246.5t233.5 -100.5t233 100.5 t94 246.5t-93.5 247t-233.5 101t-234 -101t-94 -247zM308 1331q53 167 189 167q73 0 154 -52q29 -19 39.5 -25.5t31.5 -16t36 -9.5q31 0 49 37q25 52 71 43l79 -17q60 -11 43 -69q-51 -167 -187 -167q-77 0 -155 53q-73 50 -107 50q-32 0 -49 -37q-23 -52 -70 -43l-81 17 q-60 11 -43 69z" />
<glyph unicode="&#xe4;" d="M71 530q0 153 66.5 280t185.5 201t266 74q228 0 373 -169v88q0 57 57 57h118q57 0 57 -57v-947q0 -57 -57 -57h-118q-57 0 -57 57v86q-69 -79 -164.5 -123.5t-208.5 -44.5q-147 0 -266 74t-185.5 201t-66.5 280zM307 530q0 -146 94.5 -246.5t233.5 -100.5t233 100.5 t94 246.5t-93.5 247t-233.5 101t-234 -101t-94 -247zM312 1372q0 56 38.5 94t94.5 38q57 0 95.5 -38t38.5 -94t-38.5 -94.5t-95.5 -38.5q-56 0 -94.5 38.5t-38.5 94.5zM693 1372q0 56 38.5 94t94.5 38q57 0 95 -38t38 -94t-38 -94.5t-95 -38.5q-56 0 -94.5 38.5t-38.5 94.5z " />
<glyph unicode="&#xe5;" d="M71 530q0 153 66.5 280t185.5 201t266 74q228 0 373 -169v88q0 57 57 57h118q57 0 57 -57v-947q0 -57 -57 -57h-118q-57 0 -57 57v86q-69 -79 -164.5 -123.5t-208.5 -44.5q-147 0 -266 74t-185.5 201t-66.5 280zM307 530q0 -146 94.5 -246.5t233.5 -100.5t233 100.5 t94 246.5t-93.5 247t-233.5 101t-234 -101t-94 -247zM430 1394q0 88 64 146.5t159 58.5q96 0 160 -58.5t64 -146.5t-64 -147t-160 -59q-95 0 -159 59t-64 147zM572 1394q0 -34 23 -56.5t58 -22.5t58 22.5t23 56.5t-23 57t-58 23q-34 0 -57.5 -23t-23.5 -57z" />
<glyph unicode="&#xe6;" horiz-adv-x="2150" d="M71 530q0 153 66.5 280t185.5 201t266 74q228 0 373 -169v88q0 57 57 57h118q57 0 57 -57v-86q117 167 342 167q118 0 220 -42.5t172.5 -114.5t111 -170t40.5 -207q0 -14 -2 -40q-6 -52 -62 -52h-816q17 -127 113.5 -209t235.5 -82q169 0 301 110q43 36 81 -2l44 -43 q40 -40 3 -80q-176 -178 -426 -178q-108 0 -202.5 42.5t-155.5 125.5v-86q0 -57 -57 -57h-118q-57 0 -57 57v86q-69 -79 -164.5 -123.5t-208.5 -44.5q-147 0 -266 74t-185.5 201t-66.5 280zM307 530q0 -146 94.5 -246.5t233.5 -100.5t233 100.5t94 246.5t-93.5 247 t-233.5 101t-234 -101t-94 -247zM1207 637h630q-23 113 -106.5 184.5t-200.5 71.5q-115 0 -205 -72t-118 -184z" />
<glyph unicode="&#xe7;" horiz-adv-x="1209" d="M71 530q0 116 43 219t116 176.5t175.5 116.5t216.5 43q178 0 307.5 -83t187.5 -231q11 -29 -3 -47t-45 -18h-135q-45 0 -68 44q-34 61 -95.5 94.5t-141.5 33.5q-130 0 -226 -98.5t-96 -249.5q0 -154 101.5 -250.5t245.5 -96.5q172 0 291 132q37 43 80 14l46 -32 q48 -32 18 -80q-136 -209 -371 -236v-90q100 -6 155 -63.5t55 -139.5q0 -95 -75.5 -157.5t-192.5 -62.5q-87 0 -158 41t-104 112q-12 28 2.5 46.5t45.5 18.5h47q23 0 37 -10t30 -32q31 -44 90 -44q48 0 76.5 25.5t28.5 65.5q0 38 -30.5 65t-72.5 27h-7q-50 -2 -76 21 q-8 8 -8 50v128q-210 27 -350 180.5t-140 367.5z" />
<glyph unicode="&#xe8;" horiz-adv-x="1259" d="M71 530q0 114 43.5 216.5t118.5 177t181 118t226 43.5q118 0 220.5 -42.5t174 -114.5t112.5 -170t41 -207q0 -14 -2 -40q-4 -52 -62 -52h-816q17 -127 113.5 -209t235.5 -82q179 0 317 118q42 38 81 -1l44 -43q42 -40 3 -81q-184 -186 -442 -186q-130 0 -240.5 43.5 t-186.5 118t-119 176.5t-43 217zM315 637h630q-23 113 -106 184.5t-200 71.5q-116 0 -205.5 -72t-118.5 -184zM425 1449q-41 43 6 81l57 46q46 37 81 -10l183 -251q33 -45 -11 -80l-21 -16q-43 -34 -81 6z" />
<glyph unicode="&#xe9;" horiz-adv-x="1259" d="M71 530q0 114 43.5 216.5t118.5 177t181 118t226 43.5q118 0 220.5 -42.5t174 -114.5t112.5 -170t41 -207q0 -14 -2 -40q-4 -52 -62 -52h-816q17 -127 113.5 -209t235.5 -82q179 0 317 118q42 38 81 -1l44 -43q42 -40 3 -81q-184 -186 -442 -186q-130 0 -240.5 43.5 t-186.5 118t-119 176.5t-43 217zM315 637h630q-23 113 -106 184.5t-200 71.5q-116 0 -205.5 -72t-118.5 -184zM531 1315l184 251q35 47 81 10l57 -46q47 -38 6 -81l-214 -224q-38 -40 -81 -6l-21 16q-45 35 -12 80z" />
<glyph unicode="&#xea;" horiz-adv-x="1259" d="M71 530q0 114 43.5 216.5t118.5 177t181 118t226 43.5q118 0 220.5 -42.5t174 -114.5t112.5 -170t41 -207q0 -14 -2 -40q-4 -52 -62 -52h-816q17 -127 113.5 -209t235.5 -82q179 0 317 118q42 38 81 -1l44 -43q42 -40 3 -81q-184 -186 -442 -186q-130 0 -240.5 43.5 t-186.5 118t-119 176.5t-43 217zM315 637h630q-23 113 -106 184.5t-200 71.5q-116 0 -205.5 -72t-118.5 -184zM325 1295l169 231q24 36 69 36h132q46 0 70 -35l169 -232q33 -46 -10 -80l-22 -16q-43 -34 -81 6l-191 201l-193 -201q-38 -40 -81 -6l-21 16q-43 34 -10 80z" />
<glyph unicode="&#xeb;" horiz-adv-x="1259" d="M71 530q0 114 43.5 216.5t118.5 177t181 118t226 43.5q118 0 220.5 -42.5t174 -114.5t112.5 -170t41 -207q0 -14 -2 -40q-4 -52 -62 -52h-816q17 -127 113.5 -209t235.5 -82q179 0 317 118q42 38 81 -1l44 -43q42 -40 3 -81q-184 -186 -442 -186q-130 0 -240.5 43.5 t-186.5 118t-119 176.5t-43 217zM305 1372q0 56 38.5 94t94.5 38q57 0 95 -38t38 -94t-38 -94.5t-95 -38.5q-56 0 -94.5 38.5t-38.5 94.5zM315 637h630q-23 113 -106 184.5t-200 71.5q-116 0 -205.5 -72t-118.5 -184zM686 1372q0 56 38.5 94t94.5 38q57 0 95 -38t38 -94 t-38 -94.5t-95 -38.5q-56 0 -94.5 38.5t-38.5 94.5z" />
<glyph unicode="&#xec;" horiz-adv-x="549" d="M62 1449q-41 42 7 81l57 46q46 37 81 -10l182 -251q33 -46 -10 -80l-22 -16q-43 -34 -81 6zM158 57v947q0 57 57 57h119q57 0 57 -57v-947q0 -57 -57 -57h-119q-57 0 -57 57z" />
<glyph unicode="&#xed;" horiz-adv-x="549" d="M145 1315l184 251q35 47 81 10l57 -46q47 -38 6 -81l-214 -224q-38 -40 -81 -6l-21 16q-45 35 -12 80zM158 57v947q0 57 57 57h119q57 0 57 -57v-947q0 -57 -57 -57h-119q-57 0 -57 57z" />
<glyph unicode="&#xee;" horiz-adv-x="549" d="M-31 1295l169 231q24 36 70 36h132q46 0 70 -35l169 -232q33 -45 -11 -80l-21 -16q-43 -34 -81 6l-192 201l-192 -201q-38 -40 -81 -6l-21 16q-44 35 -11 80zM158 57v947q0 57 57 57h119q57 0 57 -57v-947q0 -57 -57 -57h-119q-57 0 -57 57z" />
<glyph unicode="&#xef;" horiz-adv-x="549" d="M-49 1372q0 56 38.5 94t94.5 38q57 0 95 -38t38 -94t-38 -94.5t-95 -38.5q-56 0 -94.5 38.5t-38.5 94.5zM158 57v947q0 57 57 57h119q57 0 57 -57v-947q0 -57 -57 -57h-119q-57 0 -57 57zM332 1372q0 56 38.5 94t94.5 38q57 0 95 -38t38 -94t-38 -94.5t-95 -38.5 q-56 0 -94.5 38.5t-38.5 94.5z" />
<glyph unicode="&#xf0;" horiz-adv-x="1267" d="M71 497q0 106 44 202t116 164t168 108t198 40q146 0 253 -95q-86 154 -233 272l-244 -115q-53 -24 -77 28l-11 23q-25 53 26 77l172 81q-66 40 -140 76q-56 26 -21 78l37 57q29 45 77 24q156 -73 250 -140l170 80q52 24 76 -26l12 -25q25 -54 -28 -77l-104 -49 q176 -156 275 -358.5t99 -419.5q0 -109 -43 -207t-117 -168t-177.5 -111t-219.5 -41q-154 0 -282.5 69t-202 189t-73.5 264zM306 501q0 -134 94 -226t231 -92q136 0 229.5 92t93.5 226t-93.5 226t-229.5 92q-137 0 -231 -92t-94 -226z" />
<glyph unicode="&#xf1;" horiz-adv-x="1245" d="M142 57v947q0 57 58 57h119q58 0 58 -57v-84q56 76 140 120.5t182 44.5q192 0 308 -118t116 -313v-597q0 -57 -57 -57h-119q-57 0 -57 57v577q0 107 -66.5 175.5t-172.5 68.5q-112 0 -193 -83.5t-81 -210.5v-527q0 -57 -58 -57h-119q-58 0 -58 57zM286 1331 q53 167 188 167q74 0 155 -52q3 -2 12.5 -8t13 -8.5t11.5 -7.5t12.5 -7.5t11.5 -6.5t12 -5.5t11 -3.5t11.5 -3t10.5 -1q31 0 49 37q25 52 71 43l80 -17q60 -11 43 -69q-51 -167 -187 -167q-77 0 -155 53q-73 50 -108 50q-32 0 -49 -37q-23 -52 -69 -43l-81 17q-60 11 -43 69 z" />
<glyph unicode="&#xf2;" horiz-adv-x="1304" d="M71 530q0 152 75 279.5t208.5 201.5t297.5 74t297.5 -74t208.5 -201.5t75 -279.5t-75 -279.5t-208.5 -201.5t-297.5 -74t-297.5 74t-208.5 201.5t-75 279.5zM307 530q0 -146 99.5 -246.5t245.5 -100.5t245.5 100.5t99.5 246.5t-99.5 247t-245.5 101t-245.5 -101 t-99.5 -247zM440 1449q-41 43 6 81l58 46q46 37 81 -10l182 -251q33 -46 -10 -80l-22 -16q-43 -34 -81 6z" />
<glyph unicode="&#xf3;" horiz-adv-x="1304" d="M71 530q0 152 75 279.5t208.5 201.5t297.5 74t297.5 -74t208.5 -201.5t75 -279.5t-75 -279.5t-208.5 -201.5t-297.5 -74t-297.5 74t-208.5 201.5t-75 279.5zM307 530q0 -146 99.5 -246.5t245.5 -100.5t245.5 100.5t99.5 246.5t-99.5 247t-245.5 101t-245.5 -101 t-99.5 -247zM525 1315l184 251q35 47 81 10l57 -46q47 -38 6 -81l-214 -224q-38 -40 -81 -6l-21 16q-45 35 -12 80z" />
<glyph unicode="&#xf4;" horiz-adv-x="1304" d="M71 530q0 152 75 279.5t208.5 201.5t297.5 74t297.5 -74t208.5 -201.5t75 -279.5t-75 -279.5t-208.5 -201.5t-297.5 -74t-297.5 74t-208.5 201.5t-75 279.5zM307 530q0 -146 99.5 -246.5t245.5 -100.5t245.5 100.5t99.5 246.5t-99.5 247t-245.5 101t-245.5 -101 t-99.5 -247zM347 1295l169 231q24 36 70 36h132q45 0 69 -35l169 -232q33 -46 -10 -80l-21 -16q-43 -34 -81 6l-192 201l-192 -201q-38 -40 -81 -6l-22 16q-43 34 -10 80z" />
<glyph unicode="&#xf5;" horiz-adv-x="1304" d="M71 530q0 152 75 279.5t208.5 201.5t297.5 74t297.5 -74t208.5 -201.5t75 -279.5t-75 -279.5t-208.5 -201.5t-297.5 -74t-297.5 74t-208.5 201.5t-75 279.5zM305 1331q53 167 189 167q73 0 154 -52q29 -19 39.5 -25.5t31.5 -16t36 -9.5q31 0 49 37q13 27 29 37.5t41 5.5 l80 -17q60 -11 43 -69q-51 -167 -187 -167q-77 0 -155 53q-73 50 -107 50q-32 0 -49 -37q-23 -52 -70 -43l-81 17q-60 11 -43 69zM307 530q0 -146 99.5 -246.5t245.5 -100.5t245.5 100.5t99.5 246.5t-99.5 247t-245.5 101t-245.5 -101t-99.5 -247z" />
<glyph unicode="&#xf6;" horiz-adv-x="1304" d="M71 530q0 152 75 279.5t208.5 201.5t297.5 74t297.5 -74t208.5 -201.5t75 -279.5t-75 -279.5t-208.5 -201.5t-297.5 -74t-297.5 74t-208.5 201.5t-75 279.5zM307 530q0 -146 99.5 -246.5t245.5 -100.5t245.5 100.5t99.5 246.5t-99.5 247t-245.5 101t-245.5 -101 t-99.5 -247zM328 1372q0 56 38.5 94t94.5 38q57 0 95 -38t38 -94t-38 -94.5t-95 -38.5q-56 0 -94.5 38.5t-38.5 94.5zM709 1372q0 56 38.5 94t94.5 38q57 0 95 -38t38 -94t-38 -94.5t-95 -38.5q-56 0 -94.5 38.5t-38.5 94.5z" />
<glyph unicode="&#xf7;" horiz-adv-x="1184" d="M121 636v87q0 57 57 57h828q57 0 57 -57v-87q0 -57 -57 -57h-828q-57 0 -57 57zM444 287q0 62 42.5 104.5t105.5 42.5t105.5 -42.5t42.5 -104.5q0 -63 -42.5 -105.5t-105.5 -42.5t-105.5 42.5t-42.5 105.5zM444 1073q0 62 42.5 105t105.5 43t105.5 -43t42.5 -105 q0 -63 -42.5 -105t-105.5 -42t-105.5 42t-42.5 105z" />
<glyph unicode="&#xf8;" horiz-adv-x="1304" d="M71 530q0 152 75 279.5t208.5 201.5t297.5 74q156 0 286 -69l86 108q36 46 80 11l31 -24q46 -35 10 -80l-82 -104q81 -76 125.5 -179t44.5 -218q0 -152 -75 -279.5t-208.5 -201.5t-297.5 -74q-156 0 -286 69l-84 -106q-35 -46 -80 -11l-31 24q-46 35 -10 80l80 101 q-81 77 -125.5 179.5t-44.5 218.5zM307 530q0 -125 75 -219l420 532q-72 35 -150 35q-146 0 -245.5 -101t-99.5 -247zM502 216q68 -33 150 -33q146 0 245.5 100.5t99.5 246.5q0 127 -74 218z" />
<glyph unicode="&#xf9;" horiz-adv-x="1245" d="M122 407v597q0 57 57 57h119q57 0 57 -57v-577q0 -107 66.5 -175.5t172.5 -68.5q113 0 193.5 85.5t80.5 214.5v521q0 57 58 57h120q57 0 57 -57v-947q0 -57 -57 -57h-120q-58 0 -58 57v83q-56 -75 -140 -119.5t-182 -44.5q-192 0 -308 118t-116 313zM359 1449 q-41 42 7 81l57 46q46 37 81 -10l182 -251q33 -46 -10 -80l-22 -16q-43 -34 -81 6z" />
<glyph unicode="&#xfa;" horiz-adv-x="1245" d="M122 407v597q0 57 57 57h119q57 0 57 -57v-577q0 -107 66.5 -175.5t172.5 -68.5q113 0 193.5 85.5t80.5 214.5v521q0 57 58 57h120q57 0 57 -57v-947q0 -57 -57 -57h-120q-58 0 -58 57v83q-56 -75 -140 -119.5t-182 -44.5q-192 0 -308 118t-116 313zM493 1315l183 251 q35 47 81 10l57 -46q47 -38 6 -81l-214 -224q-38 -40 -81 -6l-21 16q-44 35 -11 80z" />
<glyph unicode="&#xfb;" horiz-adv-x="1245" d="M122 407v597q0 57 57 57h119q57 0 57 -57v-577q0 -107 66.5 -175.5t172.5 -68.5q113 0 193.5 85.5t80.5 214.5v521q0 57 58 57h120q57 0 57 -57v-947q0 -57 -57 -57h-120q-58 0 -58 57v83q-56 -75 -140 -119.5t-182 -44.5q-192 0 -308 118t-116 313zM307 1295l169 231 q24 36 70 36h132q46 0 70 -35l168 -232q33 -46 -10 -80l-21 -16q-43 -34 -81 6l-192 201l-192 -201q-38 -40 -81 -6l-22 16q-43 34 -10 80z" />
<glyph unicode="&#xfc;" horiz-adv-x="1245" d="M122 407v597q0 57 57 57h119q57 0 57 -57v-577q0 -107 66.5 -175.5t172.5 -68.5q113 0 193.5 85.5t80.5 214.5v521q0 57 58 57h120q57 0 57 -57v-947q0 -57 -57 -57h-120q-58 0 -58 57v83q-56 -75 -140 -119.5t-182 -44.5q-192 0 -308 118t-116 313zM288 1372 q0 56 38.5 94t94.5 38q57 0 95 -38t38 -94t-38 -94.5t-95 -38.5q-56 0 -94.5 38.5t-38.5 94.5zM669 1372q0 56 38.5 94t94.5 38q57 0 95 -38t38 -94t-38 -94.5t-95 -38.5q-56 0 -94.5 38.5t-38.5 94.5z" />
<glyph unicode="&#xfd;" horiz-adv-x="1087" d="M48 994q-11 30 1.5 48.5t44.5 18.5h124q50 0 66 -46l259 -717l261 717q16 46 65 46h124q32 0 44.5 -18.5t1.5 -48.5l-539 -1424q-16 -45 -66 -45h-125q-32 0 -44.5 18t-1.5 48l162 411zM416 1315l183 251q35 47 81 10l57 -46q47 -38 6 -81l-214 -224q-38 -39 -80 -6 l-22 16q-44 35 -11 80z" />
<glyph unicode="&#xfe;" d="M142 -418v1856q0 57 58 57h117q58 0 58 -57v-522q68 80 163.5 124.5t210.5 44.5q110 0 206.5 -43.5t164.5 -118t107 -177t39 -216.5q0 -153 -66 -280t-185 -201t-266 -74q-114 0 -210 44.5t-164 123.5v-561q0 -57 -58 -57h-117q-58 0 -58 57zM375 530q0 -146 94 -246.5 t233 -100.5q138 0 233 100.5t95 246.5t-94 247t-234 101t-233.5 -101t-93.5 -247z" />
<glyph unicode="&#xff;" horiz-adv-x="1087" d="M48 994q-11 30 1.5 48.5t44.5 18.5h124q50 0 66 -46l259 -717l261 717q16 46 65 46h124q32 0 44.5 -18.5t1.5 -48.5l-539 -1424q-16 -45 -66 -45h-125q-32 0 -44.5 18t-1.5 48l162 411zM219 1372q0 56 38.5 94t94.5 38q57 0 95 -38t38 -94t-38 -94.5t-95 -38.5 q-56 0 -94.5 38.5t-38.5 94.5zM600 1372q0 56 38.5 94t94.5 38q57 0 95 -38t38 -94t-38 -94.5t-95 -38.5q-56 0 -94.5 38.5t-38.5 94.5z" />
<glyph unicode="&#x152;" horiz-adv-x="1850" d="M81 717q0 149 60.5 282t163.5 228.5t245.5 151t301.5 55.5h810q57 0 57 -58v-93q0 -57 -57 -57h-554v-403h504q57 0 57 -57v-91q0 -58 -57 -58h-504v-410h572q58 0 58 -57v-93q0 -57 -58 -57h-828q-212 0 -389 94t-279.5 258.5t-102.5 364.5zM325 717q0 -215 152 -360.5 t375 -145.5h15v1011h-15q-146 0 -267 -66t-190.5 -182t-69.5 -257z" />
<glyph unicode="&#x153;" horiz-adv-x="2193" d="M71 530q0 153 74.5 280t207.5 201t295 74q147 0 271.5 -69.5t197.5 -186.5q69 114 192.5 185t267.5 71q117 0 219.5 -42.5t173.5 -114.5t112 -170t41 -207q0 -14 -2 -40q-4 -52 -62 -52h-812q18 -127 113.5 -209t229.5 -82q177 0 304 108q42 38 81 0l42 -40q42 -40 3 -81 q-175 -180 -428 -180q-154 0 -280.5 69.5t-196.5 183.5q-72 -116 -196 -184.5t-271 -68.5q-122 0 -229.5 43.5t-183.5 117.5t-120 176.5t-44 217.5zM307 530q0 -147 98 -247t243 -100t243 100t98 247t-98.5 247.5t-242.5 100.5t-242.5 -100.5t-98.5 -247.5zM1255 637h625 q-24 113 -106.5 184.5t-197.5 71.5t-204.5 -72t-116.5 -184z" />
<glyph unicode="&#x178;" horiz-adv-x="1325" d="M75.5 1414q11.5 20 45.5 20h135q46 0 68 -39l339 -580l337 580q22 39 68 39h136q34 0 45.5 -20t-6.5 -49l-460 -782v-526q0 -57 -57 -57h-127q-57 0 -57 57v526l-460 782q-18 29 -6.5 49zM338 1704q0 56 38.5 94t94.5 38q57 0 95 -38t38 -94t-38 -94.5t-95 -38.5 q-56 0 -94.5 38.5t-38.5 94.5zM719 1704q0 56 38.5 94t94.5 38q57 0 95 -38t38 -94t-38 -94.5t-95 -38.5q-56 0 -94.5 38.5t-38.5 94.5z" />
<glyph unicode="&#x2c6;" horiz-adv-x="861" d="M126 1228l169 230q24 36 70 36h132q45 0 69 -35l169 -231q33 -46 -10 -80l-22 -16q-42 -33 -80 6l-192 200l-192 -200q-38 -40 -81 -6l-22 16q-43 34 -10 80z" />
<glyph unicode="&#x2dc;" horiz-adv-x="861" d="M84 1284q53 167 188 167q74 0 155 -52q29 -19 39.5 -25.5t31.5 -16t36 -9.5q32 0 49 36q13 27 29 37.5t41 5.5l80 -16q28 -5 39.5 -23.5t3.5 -46.5q-51 -166 -187 -166q-77 0 -155 53q-73 50 -107 50q-32 0 -49 -37q-23 -52 -70 -43l-81 16q-28 5 -39.5 23.5t-3.5 46.5z " />
<glyph unicode="&#x2000;" horiz-adv-x="965" />
<glyph unicode="&#x2001;" horiz-adv-x="1931" />
<glyph unicode="&#x2002;" horiz-adv-x="965" />
<glyph unicode="&#x2003;" horiz-adv-x="1931" />
<glyph unicode="&#x2004;" horiz-adv-x="643" />
<glyph unicode="&#x2005;" horiz-adv-x="482" />
<glyph unicode="&#x2006;" horiz-adv-x="321" />
<glyph unicode="&#x2007;" horiz-adv-x="321" />
<glyph unicode="&#x2008;" horiz-adv-x="241" />
<glyph unicode="&#x2009;" horiz-adv-x="386" />
<glyph unicode="&#x200a;" horiz-adv-x="107" />
<glyph unicode="&#x2010;" horiz-adv-x="835" d="M121 628v103q0 57 57 57h479q58 0 58 -57v-103q0 -58 -58 -58h-479q-57 0 -57 58z" />
<glyph unicode="&#x2011;" horiz-adv-x="835" d="M121 628v103q0 57 57 57h479q58 0 58 -57v-103q0 -58 -58 -58h-479q-57 0 -57 58z" />
<glyph unicode="&#x2012;" horiz-adv-x="835" d="M121 628v103q0 57 57 57h479q58 0 58 -57v-103q0 -58 -58 -58h-479q-57 0 -57 58z" />
<glyph unicode="&#x2013;" horiz-adv-x="1024" d="M0 628v103q0 57 57 57h910q57 0 57 -57v-103q0 -58 -57 -58h-910q-57 0 -57 58z" />
<glyph unicode="&#x2014;" horiz-adv-x="2048" d="M0 628v103q0 57 57 57h1934q57 0 57 -57v-103q0 -58 -57 -58h-1934q-57 0 -57 58z" />
<glyph unicode="&#x2018;" horiz-adv-x="612" d="M155 1228q0 120 61.5 218t183.5 163q45 23 79 -19q30 -40 -16 -77q-81 -64 -85.5 -117.5t52.5 -123.5q27 -36 27 -76q0 -54 -43.5 -95.5t-109.5 -41.5q-65 0 -107 45.5t-42 123.5z" />
<glyph unicode="&#x2019;" horiz-adv-x="612" d="M133 1054q-29 39 17 76q81 64 85 118t-53 124q-26 35 -26 76q0 54 43 95.5t109 41.5q65 0 107.5 -45.5t42.5 -123.5q0 -120 -62 -218t-184 -163q-45 -23 -79 19z" />
<glyph unicode="&#x201a;" horiz-adv-x="612" d="M133 -258q-29 40 17 77q81 64 85 117.5t-53 123.5q-26 35 -26 76q0 54 43 95.5t109 41.5q65 0 107.5 -45.5t42.5 -123.5q0 -120 -62 -217.5t-184 -162.5q-45 -23 -79 18z" />
<glyph unicode="&#x201c;" horiz-adv-x="979" d="M155 1228q0 120 61.5 218t183.5 163q45 23 79 -19q30 -40 -16 -77q-81 -64 -85.5 -117.5t52.5 -123.5q27 -36 27 -76q0 -54 -43.5 -95.5t-109.5 -41.5q-65 0 -107 45.5t-42 123.5zM522 1228q0 120 62 218t184 163q45 23 79 -19q29 -40 -17 -77q-81 -64 -85 -117.5 t53 -123.5q26 -35 26 -76q0 -54 -43 -95.5t-109 -41.5q-65 0 -107.5 45.5t-42.5 123.5z" />
<glyph unicode="&#x201d;" horiz-adv-x="979" d="M133 1054q-29 39 17 76q81 64 85 118t-53 124q-26 35 -26 76q0 54 43 95.5t109 41.5q65 0 107.5 -45.5t42.5 -123.5q0 -120 -62 -218t-184 -163q-45 -23 -79 19zM500 1054q-29 40 16 76q81 64 85.5 118t-52.5 124q-27 36 -27 76q0 54 43.5 95.5t109.5 41.5 q65 0 107 -45.5t42 -123.5q0 -120 -61.5 -218t-183.5 -163q-45 -23 -79 19z" />
<glyph unicode="&#x201e;" horiz-adv-x="979" d="M133 -258q-29 40 17 77q81 64 85 117.5t-53 123.5q-26 35 -26 76q0 54 43 95.5t109 41.5q65 0 107.5 -45.5t42.5 -123.5q0 -120 -62 -217.5t-184 -162.5q-45 -23 -79 18zM500 -258q-30 40 16 77q81 64 85.5 117.5t-52.5 123.5q-27 36 -27 76q0 54 43.5 95.5t109.5 41.5 q65 0 107 -45.5t42 -123.5q0 -120 -61.5 -217.5t-183.5 -162.5q-45 -23 -79 18z" />
<glyph unicode="&#x2022;" horiz-adv-x="819" d="M139 680q0 110 79.5 189t191.5 79q111 0 190.5 -79t79.5 -189q0 -112 -79 -190t-191 -78q-113 0 -192 78t-79 190z" />
<glyph unicode="&#x2026;" horiz-adv-x="1838" d="M156 124q0 64 43 106.5t107 42.5q65 0 108 -42.5t43 -106.5q0 -63 -43.5 -106t-107.5 -43t-107 43t-43 106zM768 124q0 64 43 106.5t108 42.5q64 0 107 -42.5t43 -106.5q0 -63 -43 -106t-107 -43t-107.5 43t-43.5 106zM1381 124q0 64 43 106.5t108 42.5q64 0 107 -42.5 t43 -106.5q0 -63 -43 -106t-107 -43t-107.5 43t-43.5 106z" />
<glyph unicode="&#x202f;" horiz-adv-x="386" />
<glyph unicode="&#x2039;" horiz-adv-x="800" d="M101 602v71q0 44 38 69l435 284q50 31 79 -18l14 -23q27 -45 -15 -80l-330 -268l330 -267q42 -34 16 -80l-15 -24q-29 -49 -79 -18l-436 284q-37 24 -37 70z" />
<glyph unicode="&#x203a;" horiz-adv-x="800" d="M132 290q-26 47 15 80l331 267l-331 268q-42 34 -14 80l13 23q29 49 79 18l435 -284q38 -25 38 -69v-71q0 -46 -36 -70l-437 -284q-50 -32 -79 18z" />
<glyph unicode="&#x205f;" horiz-adv-x="482" />
<glyph unicode="&#x20ac;" horiz-adv-x="1584" d="M10 574v20q0 57 58 57h48q-3 33 -3 66q0 32 3 65h-48q-58 0 -58 58v19q0 57 58 57h69q62 242 254 392t445 150q240 0 410 -119t239 -331q10 -30 -3.5 -47.5t-44.5 -17.5h-137q-47 0 -65 46q-51 123 -157 190t-239 67q-152 0 -274.5 -88t-174.5 -242h545q31 0 44 -17.5 t3 -47.5l-7 -23q-14 -46 -66 -46h-549q-3 -33 -3 -65q0 -36 3 -66h493q31 0 44 -17.5t3 -47.5l-7 -23q-14 -46 -66 -46h-436q52 -154 177.5 -242t280.5 -88q282 0 456 236q35 47 79 14l56 -41q44 -33 16 -79q-214 -342 -620 -342q-254 0 -445.5 149.5t-253.5 392.5h-69 q-58 0 -58 57z" />
<glyph unicode="&#x2122;" horiz-adv-x="1589" d="M58 1348v28q0 58 58 58h451q58 0 58 -58v-28q0 -58 -58 -58h-137v-557q0 -57 -57 -57h-63q-57 0 -57 57v557h-137q-58 0 -58 58zM697 733v643q0 58 58 58h63q47 0 67 -42l197 -392l198 392q20 42 68 42h63q57 0 57 -58v-643q0 -57 -57 -57h-56q-58 0 -58 57v385 l-159 -303q-20 -41 -56 -41q-34 0 -55 41l-160 303v-385q0 -57 -57 -57h-55q-58 0 -58 57z" />
<glyph unicode="&#x25fc;" horiz-adv-x="1059" d="M0 0v1060h1060v-1060h-1060z" />
</font>
</defs>
</svg>
