<svg id="Layer_1" data-name="Layer 1" xmlns="http://www.w3.org/2000/svg" viewBox="0 0 512 365"><defs><style>.cls-1{fill:#a9dbf5;}.cls-2{fill:#88c3e0;}.cls-3{fill:#43809f;}.cls-4{fill:#29cef6;}.cls-5{fill:#ffc328;}.cls-6{fill:#f78e36;}.cls-7{fill:#3a7190;}.cls-8{fill:#f3f3f3;}</style></defs><path class="cls-1" d="M481.08,365H30.92A30.92,30.92,0,0,1,0,334.08V63.6H512V334.08A30.92,30.92,0,0,1,481.08,365Z"/><path class="cls-2" d="M481.1,63.6V365A30.92,30.92,0,0,0,512,334.07V63.6Z"/><path class="cls-3" d="M103.87,160.47a7.5,7.5,0,0,0-10.61,0L46.83,206.9a7.5,7.5,0,0,0,0,10.61l45.82,45.81a7.5,7.5,0,0,0,10.61,0,7.52,7.52,0,0,0,0-10.61L62.74,212.2l41.13-41.13a7.49,7.49,0,0,0,0-10.6Z"/><path class="cls-3" d="M264.52,206.9l-46.43-46.43a7.5,7.5,0,1,0-10.61,10.6l41.13,41.13L208.1,252.71a7.5,7.5,0,1,0,10.6,10.61l45.82-45.82a7.49,7.49,0,0,0,0-10.6Z"/><path class="cls-3" d="M185.81,132.56a7.5,7.5,0,0,0-9.67,4.35l-54.9,144.64a7.5,7.5,0,1,0,14,5.32l54.9-144.63a7.5,7.5,0,0,0-4.35-9.68Z"/><path class="cls-4" d="M386.32,160.73H337.9a15.46,15.46,0,0,1,0-30.91h48.42a15.46,15.46,0,0,1,0,30.91Z"/><path class="cls-5" d="M465.64,222.54H337.9a15.46,15.46,0,0,1,0-30.91H465.64a15.46,15.46,0,0,1,0,30.91Z"/><path class="cls-6" d="M427.7,284.35H337.9a15.45,15.45,0,1,1,0-30.9h89.8a15.45,15.45,0,0,1,0,30.9Z"/><path class="cls-3" d="M512,74.24H0V30.92A30.92,30.92,0,0,1,30.92,0H481.08A30.92,30.92,0,0,1,512,30.92Z"/><path class="cls-7" d="M481.1,0V74.24H512V30.93A30.92,30.92,0,0,0,481.1,0Z"/><circle class="cls-4" cx="49.46" cy="37.63" r="15.45"/><circle class="cls-8" cx="109.37" cy="37.63" r="15.45"/><circle class="cls-6" cx="169.29" cy="37.63" r="15.45"/></svg>